<svg width="503" height="497" viewBox="0 0 503 497" fill="none" xmlns="http://www.w3.org/2000/svg">
<g clip-path="url(#clip0_890_947)">
<g filter="url(#filter0_d_890_947)">
<rect x="26.1113" y="23.4102" width="450.181" height="450.181" rx="225.091" fill="#0A0C35"/>
<rect x="27.9121" y="25.2109" width="446.58" height="446.58" rx="223.29" stroke="#0075FF" stroke-width="3.60145"/>
<path fill-rule="evenodd" clip-rule="evenodd" d="M360.934 154.93C365.851 153.192 369.374 148.502 369.374 142.989C369.374 135.997 363.706 130.328 356.713 130.328C349.72 130.328 344.052 135.997 344.052 142.989C344.052 148.502 347.575 153.192 352.493 154.93V181.698C352.493 182.817 352.048 183.89 351.256 184.682L328.408 207.53C326.755 206.739 324.904 206.296 322.949 206.296C315.957 206.296 310.288 211.965 310.288 218.958C310.288 225.95 315.957 231.619 322.949 231.619C329.942 231.619 335.611 225.95 335.611 218.958C335.611 217.003 335.168 215.152 334.377 213.499L357.225 190.651C359.6 188.276 360.934 185.056 360.934 181.698V154.93ZM360.934 142.989C360.934 140.659 359.044 138.769 356.713 138.769C354.382 138.769 352.493 140.659 352.493 142.989C352.493 145.32 354.382 147.21 356.713 147.21C359.044 147.21 360.934 145.32 360.934 142.989ZM322.949 214.737C325.28 214.737 327.17 216.627 327.17 218.958C327.17 221.288 325.28 223.178 322.949 223.178C320.619 223.178 318.729 221.288 318.729 218.958C318.729 216.627 320.619 214.737 322.949 214.737Z" fill="url(#paint0_linear_890_947)"/>
<path fill-rule="evenodd" clip-rule="evenodd" d="M335.611 273.823C335.611 279.336 332.088 284.026 327.17 285.764V318.5L351.254 342.584C352.907 341.793 354.758 341.351 356.713 341.351C363.706 341.351 369.374 347.019 369.374 354.012C369.374 361.005 363.706 366.673 356.713 366.673C349.72 366.673 344.052 361.005 344.052 354.012C344.052 352.057 344.495 350.206 345.286 348.553L319.965 323.233C319.174 322.441 318.729 321.368 318.729 320.248V285.764C313.811 284.026 310.288 279.336 310.288 273.823C310.288 266.831 315.957 261.162 322.949 261.162C329.942 261.162 335.611 266.831 335.611 273.823ZM327.17 273.823C327.17 271.492 325.28 269.603 322.949 269.603C320.619 269.603 318.729 271.492 318.729 273.823C318.729 276.154 320.619 278.044 322.949 278.044C325.28 278.044 327.17 276.154 327.17 273.823ZM356.713 349.791C359.044 349.791 360.934 351.681 360.934 354.012C360.934 356.343 359.044 358.232 356.713 358.232C354.382 358.232 352.493 356.343 352.493 354.012C352.493 351.681 354.382 349.791 356.713 349.791Z" fill="url(#paint1_linear_890_947)"/>
<path fill-rule="evenodd" clip-rule="evenodd" d="M183.675 281.544C188.592 279.806 192.116 275.116 192.116 269.603C192.116 262.61 186.447 256.942 179.454 256.942C172.462 256.942 166.793 262.61 166.793 269.603C166.793 275.116 170.316 279.806 175.234 281.544V318.5L151.149 342.584C149.497 341.793 147.645 341.351 145.691 341.351C138.698 341.351 133.029 347.019 133.029 354.012C133.029 361.005 138.698 366.673 145.691 366.673C152.683 366.673 158.352 361.005 158.352 354.012C158.352 352.057 157.909 350.206 157.118 348.553L182.439 323.233C183.23 322.441 183.675 321.368 183.675 320.248V281.544ZM179.454 265.382C177.123 265.382 175.234 267.272 175.234 269.603C175.234 271.934 177.123 273.823 179.454 273.823C181.785 273.823 183.675 271.934 183.675 269.603C183.675 267.272 181.785 265.382 179.454 265.382ZM141.47 354.012C141.47 351.681 143.36 349.791 145.691 349.791C148.022 349.791 149.911 351.681 149.911 354.012C149.911 356.343 148.022 358.232 145.691 358.232C143.36 358.232 141.47 356.343 141.47 354.012Z" fill="url(#paint2_linear_890_947)"/>
<path fill-rule="evenodd" clip-rule="evenodd" d="M255.422 327.969V342.071C260.34 343.809 263.863 348.499 263.863 354.012C263.863 361.005 258.195 366.673 251.202 366.673C244.209 366.673 238.541 361.005 238.541 354.012C238.541 348.499 242.064 343.809 246.981 342.071V327.969C242.064 326.231 238.541 321.541 238.541 316.028C238.541 309.035 244.209 303.367 251.202 303.367C258.195 303.367 263.863 309.035 263.863 316.028C263.863 321.541 260.34 326.231 255.422 327.969ZM251.202 320.248C253.533 320.248 255.422 318.359 255.422 316.028C255.422 313.697 253.533 311.807 251.202 311.807C248.871 311.807 246.981 313.697 246.981 316.028C246.981 318.359 248.871 320.248 251.202 320.248ZM251.202 349.791C253.533 349.791 255.422 351.681 255.422 354.012C255.422 356.343 253.533 358.232 251.202 358.232C248.871 358.232 246.981 356.343 246.981 354.012C246.981 351.681 248.871 349.791 251.202 349.791Z" fill="url(#paint3_linear_890_947)"/>
<path fill-rule="evenodd" clip-rule="evenodd" d="M178.316 148.244L191.082 161.01C192.682 160.279 194.462 159.871 196.336 159.871C203.329 159.871 208.997 165.54 208.997 172.533C208.997 179.525 203.329 185.194 196.336 185.194C189.343 185.194 183.675 179.525 183.675 172.533C183.675 170.498 184.155 168.576 185.007 166.872L172.454 154.319C167.712 156.689 161.794 155.896 157.84 151.942C152.895 146.998 152.895 138.981 157.84 134.037C162.785 129.092 170.801 129.092 175.746 134.037C179.588 137.878 180.444 143.575 178.316 148.244ZM169.777 140.005C171.425 141.653 171.425 144.326 169.777 145.974C168.129 147.622 165.457 147.622 163.809 145.974C162.16 144.326 162.16 141.653 163.809 140.005C165.457 138.357 168.129 138.357 169.777 140.005ZM196.336 168.312C194.005 168.312 192.116 170.202 192.116 172.533C192.116 174.863 194.005 176.753 196.336 176.753C198.667 176.753 200.556 174.863 200.556 172.533C200.556 170.202 198.667 168.312 196.336 168.312Z" fill="url(#paint4_linear_890_947)"/>
<path d="M271.305 242.786C272.811 241.007 272.589 238.344 270.81 236.838C269.03 235.332 266.367 235.554 264.862 237.334L244.612 261.265L235.194 251.847C233.546 250.199 230.874 250.199 229.226 251.847C227.577 253.495 227.577 256.167 229.226 257.816L241.887 270.477C242.721 271.312 243.867 271.759 245.047 271.71C246.226 271.66 247.331 271.12 248.093 270.219L271.305 242.786Z" fill="url(#paint5_linear_890_947)"/>
<path fill-rule="evenodd" clip-rule="evenodd" d="M208.997 252.721C208.997 229.412 227.893 210.517 251.202 210.517C274.511 210.517 293.406 229.412 293.406 252.721C293.406 276.03 274.511 294.926 251.202 294.926C227.893 294.926 208.997 276.03 208.997 252.721ZM251.202 218.958C232.555 218.958 217.438 234.074 217.438 252.721C217.438 271.368 232.555 286.485 251.202 286.485C269.849 286.485 284.965 271.368 284.965 252.721C284.965 234.074 269.849 218.958 251.202 218.958Z" fill="url(#paint6_linear_890_947)"/>
<path d="M216.67 166.272C220.883 164.859 225.397 164.092 230.1 164.092C245.217 164.092 258.482 172.037 265.941 184C267.025 185.737 269.199 186.446 271.099 185.682C278.638 182.646 286.877 180.974 295.517 180.974C308.687 180.974 320.936 184.861 331.196 191.55C333.148 192.823 335.763 192.273 337.036 190.32C338.309 188.367 337.758 185.753 335.806 184.48C324.217 176.924 310.373 172.533 295.517 172.533C286.989 172.533 278.791 173.98 271.161 176.644C261.966 163.933 247.001 155.651 230.1 155.651C224.473 155.651 219.053 156.57 213.986 158.269C211.776 159.01 210.585 161.403 211.327 163.613C212.068 165.823 214.46 167.013 216.67 166.272Z" fill="url(#paint7_linear_890_947)"/>
<path d="M190.076 192.867C190.817 190.657 189.626 188.264 187.416 187.523C185.206 186.782 182.814 187.973 182.073 190.183C180.373 195.25 179.454 200.67 179.454 206.296C179.454 210.688 180.014 214.954 181.068 219.023C154.309 220.38 133.029 242.507 133.029 269.603C133.029 290.199 145.323 307.914 162.954 315.828C165.081 316.783 167.578 315.833 168.533 313.706C169.488 311.58 168.537 309.082 166.411 308.128C151.701 301.525 141.47 286.754 141.47 269.603C141.47 246.294 160.366 227.398 183.675 227.398C184.657 227.398 185.631 227.432 186.595 227.498C188.039 227.596 189.432 226.948 190.287 225.78C191.142 224.613 191.34 223.089 190.81 221.742C188.93 216.964 187.895 211.756 187.895 206.296C187.895 201.594 188.662 197.08 190.076 192.867Z" fill="url(#paint8_linear_890_947)"/>
<path d="M358.181 207.282C356.945 205.305 354.341 204.705 352.365 205.941C350.389 207.177 349.789 209.781 351.024 211.757C357.304 221.798 360.934 233.664 360.934 246.39C360.934 268.493 349.976 288.037 333.178 299.886C331.273 301.229 330.818 303.863 332.162 305.767C333.506 307.672 336.139 308.127 338.044 306.783C356.987 293.421 369.374 271.352 369.374 246.39C369.374 232.036 365.275 218.626 358.181 207.282Z" fill="url(#paint9_linear_890_947)"/>
<path d="M308.94 319.031C311.233 318.61 312.75 316.41 312.329 314.117C311.908 311.825 309.708 310.308 307.415 310.729C303.56 311.437 299.583 311.807 295.517 311.807C294.852 311.807 294.191 311.798 293.532 311.778C293.317 311.772 293.103 311.782 292.893 311.807H273.359C271.028 311.807 269.139 313.697 269.139 316.028C269.139 318.359 271.028 320.248 273.359 320.248H293.406C293.543 320.248 293.679 320.242 293.812 320.229C294.379 320.242 294.947 320.248 295.517 320.248C300.097 320.248 304.584 319.831 308.94 319.031Z" fill="url(#paint10_linear_890_947)"/>
<path d="M196.336 311.807C194.005 311.807 192.116 313.697 192.116 316.028C192.116 318.359 194.005 320.248 196.336 320.248H225.879C228.21 320.248 230.1 318.359 230.1 316.028C230.1 313.697 228.21 311.807 225.879 311.807H196.336Z" fill="url(#paint11_linear_890_947)"/>
</g>
</g>
<rect x="1.80072" y="1.80072" width="498.801" height="493.399" rx="246.699" stroke="#4A4A4A" stroke-width="3.60145" stroke-dasharray="7.2 7.2"/>
<defs>
<filter id="filter0_d_890_947" x="-63.9249" y="-66.6261" width="630.254" height="630.254" filterUnits="userSpaceOnUse" color-interpolation-filters="sRGB">
<feFlood flood-opacity="0" result="BackgroundImageFix"/>
<feColorMatrix in="SourceAlpha" type="matrix" values="0 0 0 0 0 0 0 0 0 0 0 0 0 0 0 0 0 0 127 0" result="hardAlpha"/>
<feOffset/>
<feGaussianBlur stdDeviation="45.0181"/>
<feComposite in2="hardAlpha" operator="out"/>
<feColorMatrix type="matrix" values="0 0 0 0 0.069255 0 0 0 0 0.275775 0 0 0 0 0.564904 0 0 0 1 0"/>
<feBlend mode="normal" in2="BackgroundImageFix" result="effect1_dropShadow_890_947"/>
<feBlend mode="normal" in="SourceGraphic" in2="effect1_dropShadow_890_947" result="shape"/>
</filter>
<linearGradient id="paint0_linear_890_947" x1="159.187" y1="140.16" x2="369.931" y2="367.23" gradientUnits="userSpaceOnUse">
<stop stop-color="#6FD3FF"/>
<stop offset="1" stop-color="#288AFE"/>
</linearGradient>
<linearGradient id="paint1_linear_890_947" x1="159.187" y1="140.16" x2="369.931" y2="367.23" gradientUnits="userSpaceOnUse">
<stop stop-color="#6FD3FF"/>
<stop offset="1" stop-color="#288AFE"/>
</linearGradient>
<linearGradient id="paint2_linear_890_947" x1="159.187" y1="140.16" x2="369.931" y2="367.23" gradientUnits="userSpaceOnUse">
<stop stop-color="#6FD3FF"/>
<stop offset="1" stop-color="#288AFE"/>
</linearGradient>
<linearGradient id="paint3_linear_890_947" x1="159.187" y1="140.16" x2="369.931" y2="367.23" gradientUnits="userSpaceOnUse">
<stop stop-color="#6FD3FF"/>
<stop offset="1" stop-color="#288AFE"/>
</linearGradient>
<linearGradient id="paint4_linear_890_947" x1="159.187" y1="140.16" x2="369.931" y2="367.23" gradientUnits="userSpaceOnUse">
<stop stop-color="#6FD3FF"/>
<stop offset="1" stop-color="#288AFE"/>
</linearGradient>
<linearGradient id="paint5_linear_890_947" x1="159.187" y1="140.16" x2="369.931" y2="367.23" gradientUnits="userSpaceOnUse">
<stop stop-color="#6FD3FF"/>
<stop offset="1" stop-color="#288AFE"/>
</linearGradient>
<linearGradient id="paint6_linear_890_947" x1="159.187" y1="140.16" x2="369.931" y2="367.23" gradientUnits="userSpaceOnUse">
<stop stop-color="#6FD3FF"/>
<stop offset="1" stop-color="#288AFE"/>
</linearGradient>
<linearGradient id="paint7_linear_890_947" x1="159.187" y1="140.16" x2="369.931" y2="367.23" gradientUnits="userSpaceOnUse">
<stop stop-color="#6FD3FF"/>
<stop offset="1" stop-color="#288AFE"/>
</linearGradient>
<linearGradient id="paint8_linear_890_947" x1="159.187" y1="140.16" x2="369.931" y2="367.23" gradientUnits="userSpaceOnUse">
<stop stop-color="#6FD3FF"/>
<stop offset="1" stop-color="#288AFE"/>
</linearGradient>
<linearGradient id="paint9_linear_890_947" x1="159.187" y1="140.16" x2="369.931" y2="367.23" gradientUnits="userSpaceOnUse">
<stop stop-color="#6FD3FF"/>
<stop offset="1" stop-color="#288AFE"/>
</linearGradient>
<linearGradient id="paint10_linear_890_947" x1="159.187" y1="140.16" x2="369.931" y2="367.23" gradientUnits="userSpaceOnUse">
<stop stop-color="#6FD3FF"/>
<stop offset="1" stop-color="#288AFE"/>
</linearGradient>
<linearGradient id="paint11_linear_890_947" x1="159.187" y1="140.16" x2="369.931" y2="367.23" gradientUnits="userSpaceOnUse">
<stop stop-color="#6FD3FF"/>
<stop offset="1" stop-color="#288AFE"/>
</linearGradient>
<clipPath id="clip0_890_947">
<rect width="502.402" height="497" rx="248.5" fill="white"/>
</clipPath>
</defs>
</svg>
