<svg width="477" height="477" viewBox="0 0 477 477" fill="none" xmlns="http://www.w3.org/2000/svg">
<g clip-path="url(#clip0_1776_1597)">
<g filter="url(#filter0_d_1776_1597)">
<rect x="22.4453" y="22.4453" width="431.654" height="431.654" rx="215.827" fill="#04081D"/>
<rect x="24.1719" y="24.1719" width="428.2" height="428.2" rx="214.1" stroke="#9DC6FF" stroke-opacity="0.6" stroke-width="3.45323"/>
<path fill-rule="evenodd" clip-rule="evenodd" d="M343.488 148.555C348.203 146.888 351.581 142.391 351.581 137.105C351.581 130.4 346.146 124.965 339.441 124.965C332.736 124.965 327.301 130.4 327.301 137.105C327.301 142.391 330.679 146.888 335.394 148.555V174.22C335.394 175.293 334.968 176.323 334.209 177.082L312.301 198.99C310.716 198.231 308.941 197.806 307.067 197.806C300.362 197.806 294.926 203.242 294.926 209.947C294.926 216.652 300.362 222.087 307.067 222.087C313.772 222.087 319.207 216.652 319.207 209.947C319.207 208.072 318.782 206.297 318.024 204.713L339.932 182.805C342.208 180.528 343.488 177.44 343.488 174.22V148.555ZM343.488 137.105C343.488 134.87 341.676 133.058 339.441 133.058C337.206 133.058 335.394 134.87 335.394 137.105C335.394 139.34 337.206 141.152 339.441 141.152C341.676 141.152 343.488 139.34 343.488 137.105ZM307.067 205.9C309.302 205.9 311.114 207.712 311.114 209.947C311.114 212.182 309.302 213.993 307.067 213.993C304.832 213.993 303.02 212.182 303.02 209.947C303.02 207.712 304.832 205.9 307.067 205.9Z" fill="url(#paint0_linear_1776_1597)"/>
<path fill-rule="evenodd" clip-rule="evenodd" d="M319.207 262.554C319.207 267.84 315.829 272.337 311.114 274.004V305.392L334.207 328.486C335.791 327.727 337.567 327.302 339.441 327.302C346.146 327.302 351.581 332.738 351.581 339.443C351.581 346.148 346.146 351.583 339.441 351.583C332.736 351.583 327.301 346.148 327.301 339.443C327.301 337.568 327.725 335.793 328.484 334.209L304.205 309.93C303.446 309.171 303.02 308.142 303.02 307.069V274.004C298.305 272.337 294.926 267.84 294.926 262.554C294.926 255.85 300.362 250.414 307.067 250.414C313.772 250.414 319.207 255.85 319.207 262.554ZM311.114 262.554C311.114 260.319 309.302 258.508 307.067 258.508C304.832 258.508 303.02 260.319 303.02 262.554C303.02 264.789 304.832 266.601 307.067 266.601C309.302 266.601 311.114 264.789 311.114 262.554ZM339.441 335.396C341.676 335.396 343.488 337.208 343.488 339.443C343.488 341.678 341.676 343.489 339.441 343.489C337.206 343.489 335.394 341.678 335.394 339.443C335.394 337.208 337.206 335.396 339.441 335.396Z" fill="url(#paint1_linear_1776_1597)"/>
<path fill-rule="evenodd" clip-rule="evenodd" d="M173.524 269.957C178.239 268.291 181.617 263.794 181.617 258.508C181.617 251.803 176.182 246.367 169.477 246.367C162.772 246.367 157.337 251.803 157.337 258.508C157.337 263.794 160.715 268.291 165.43 269.957V305.392L142.337 328.486C140.752 327.727 138.977 327.302 137.103 327.302C130.398 327.302 124.963 332.738 124.963 339.443C124.963 346.148 130.398 351.583 137.103 351.583C143.808 351.583 149.243 346.148 149.243 339.443C149.243 337.568 148.819 335.793 148.06 334.209L172.339 309.93C173.098 309.171 173.524 308.142 173.524 307.069V269.957ZM169.477 254.461C167.242 254.461 165.43 256.273 165.43 258.508C165.43 260.743 167.242 262.554 169.477 262.554C171.712 262.554 173.524 260.743 173.524 258.508C173.524 256.273 171.712 254.461 169.477 254.461ZM133.056 339.443C133.056 337.208 134.868 335.396 137.103 335.396C139.338 335.396 141.15 337.208 141.15 339.443C141.15 341.678 139.338 343.489 137.103 343.489C134.868 343.489 133.056 341.678 133.056 339.443Z" fill="url(#paint2_linear_1776_1597)"/>
<path fill-rule="evenodd" clip-rule="evenodd" d="M242.319 314.471V327.993C247.034 329.66 250.412 334.157 250.412 339.443C250.412 346.148 244.977 351.583 238.272 351.583C231.567 351.583 226.132 346.148 226.132 339.443C226.132 334.157 229.51 329.66 234.225 327.993V314.471C229.51 312.805 226.132 308.308 226.132 303.022C226.132 296.317 231.567 290.882 238.272 290.882C244.977 290.882 250.412 296.317 250.412 303.022C250.412 308.308 247.034 312.805 242.319 314.471ZM238.272 307.069C240.507 307.069 242.319 305.257 242.319 303.022C242.319 300.787 240.507 298.975 238.272 298.975C236.037 298.975 234.225 300.787 234.225 303.022C234.225 305.257 236.037 307.069 238.272 307.069ZM238.272 335.396C240.507 335.396 242.319 337.208 242.319 339.443C242.319 341.678 240.507 343.489 238.272 343.489C236.037 343.489 234.225 341.678 234.225 339.443C234.225 337.208 236.037 335.396 238.272 335.396Z" fill="url(#paint3_linear_1776_1597)"/>
<path fill-rule="evenodd" clip-rule="evenodd" d="M168.386 142.144L180.626 154.384C182.161 153.683 183.867 153.292 185.664 153.292C192.369 153.292 197.804 158.727 197.804 165.432C197.804 172.137 192.369 177.573 185.664 177.573C178.959 177.573 173.524 172.137 173.524 165.432C173.524 163.482 173.984 161.638 174.802 160.005L162.765 147.968C158.219 150.24 152.544 149.481 148.752 145.69C144.011 140.948 144.011 133.262 148.752 128.521C153.494 123.78 161.18 123.78 165.921 128.521C169.605 132.204 170.427 137.667 168.386 142.144ZM160.198 134.244C161.779 135.824 161.779 138.386 160.198 139.967C158.618 141.547 156.056 141.547 154.475 139.967C152.895 138.386 152.895 135.824 154.475 134.244C156.056 132.663 158.618 132.663 160.198 134.244ZM185.664 161.386C183.429 161.386 181.617 163.197 181.617 165.432C181.617 167.667 183.429 169.479 185.664 169.479C187.899 169.479 189.711 167.667 189.711 165.432C189.711 163.197 187.899 161.386 185.664 161.386Z" fill="url(#paint4_linear_1776_1597)"/>
<path d="M257.548 232.794C258.992 231.088 258.779 228.535 257.073 227.091C255.367 225.648 252.813 225.86 251.37 227.566L231.953 250.513L222.923 241.483C221.343 239.902 218.78 239.902 217.2 241.483C215.62 243.063 215.62 245.625 217.2 247.206L229.34 259.346C230.141 260.146 231.239 260.575 232.37 260.528C233.501 260.481 234.56 259.962 235.291 259.098L257.548 232.794Z" fill="url(#paint5_linear_1776_1597)"/>
<path fill-rule="evenodd" clip-rule="evenodd" d="M197.804 242.321C197.804 219.971 215.922 201.853 238.272 201.853C260.622 201.853 278.739 219.971 278.739 242.321C278.739 264.67 260.622 282.788 238.272 282.788C215.922 282.788 197.804 264.67 197.804 242.321ZM238.272 209.947C220.392 209.947 205.898 224.441 205.898 242.321C205.898 260.2 220.392 274.695 238.272 274.695C256.152 274.695 270.646 260.2 270.646 242.321C270.646 224.441 256.152 209.947 238.272 209.947Z" fill="url(#paint6_linear_1776_1597)"/>
<path d="M205.161 159.429C209.201 158.075 213.53 157.339 218.038 157.339C232.533 157.339 245.252 164.957 252.405 176.427C253.443 178.094 255.529 178.774 257.35 178.04C264.579 175.13 272.479 173.526 280.763 173.526C293.391 173.526 305.136 177.254 314.973 183.667C316.846 184.888 319.353 184.36 320.573 182.488C321.794 180.616 321.266 178.108 319.394 176.888C308.282 169.643 295.008 165.432 280.763 165.432C272.586 165.432 264.726 166.82 257.41 169.374C248.593 157.187 234.244 149.245 218.038 149.245C212.644 149.245 207.446 150.127 202.588 151.756C200.469 152.467 199.327 154.761 200.038 156.88C200.749 158.999 203.042 160.14 205.161 159.429Z" fill="url(#paint7_linear_1776_1597)"/>
<path d="M179.661 184.93C180.372 182.811 179.23 180.517 177.111 179.806C174.992 179.095 172.699 180.237 171.988 182.356C170.358 187.215 169.477 192.412 169.477 197.806C169.477 202.017 170.014 206.108 171.024 210.01C145.366 211.311 124.963 232.526 124.963 258.508C124.963 278.256 136.75 295.242 153.656 302.831C155.695 303.746 158.09 302.835 159.005 300.796C159.921 298.757 159.01 296.362 156.971 295.447C142.866 289.116 133.056 274.953 133.056 258.508C133.056 236.158 151.174 218.04 173.524 218.04C174.466 218.04 175.399 218.072 176.324 218.135C177.708 218.23 179.045 217.608 179.865 216.489C180.684 215.369 180.873 213.908 180.365 212.616C178.563 208.035 177.571 203.041 177.571 197.806C177.571 193.298 178.306 188.969 179.661 184.93Z" fill="url(#paint8_linear_1776_1597)"/>
<path d="M340.849 198.751C339.664 196.856 337.167 196.281 335.272 197.466C333.377 198.651 332.801 201.148 333.986 203.042C340.007 212.67 343.488 224.048 343.488 236.251C343.488 257.443 332.981 276.183 316.874 287.544C315.048 288.832 314.612 291.357 315.9 293.184C317.188 295.01 319.713 295.446 321.54 294.158C339.704 281.345 351.581 260.185 351.581 236.251C351.581 222.487 347.65 209.628 340.849 198.751Z" fill="url(#paint9_linear_1776_1597)"/>
<path d="M293.634 305.901C295.832 305.497 297.287 303.388 296.883 301.19C296.48 298.992 294.37 297.537 292.172 297.941C288.475 298.62 284.662 298.975 280.763 298.975C280.126 298.975 279.492 298.966 278.86 298.947C278.654 298.941 278.449 298.95 278.247 298.975H259.517C257.282 298.975 255.471 300.787 255.471 303.022C255.471 305.257 257.282 307.069 259.517 307.069H278.739C278.871 307.069 279.001 307.062 279.129 307.05C279.672 307.063 280.217 307.069 280.763 307.069C285.155 307.069 289.457 306.668 293.634 305.901Z" fill="url(#paint10_linear_1776_1597)"/>
<path d="M185.664 298.975C183.429 298.975 181.617 300.787 181.617 303.022C181.617 305.257 183.429 307.069 185.664 307.069H213.991C216.226 307.069 218.038 305.257 218.038 303.022C218.038 300.787 216.226 298.975 213.991 298.975H185.664Z" fill="url(#paint11_linear_1776_1597)"/>
</g>
</g>
<defs>
<filter id="filter0_d_1776_1597" x="-63.8854" y="-63.8854" width="604.316" height="604.316" filterUnits="userSpaceOnUse" color-interpolation-filters="sRGB">
<feFlood flood-opacity="0" result="BackgroundImageFix"/>
<feColorMatrix in="SourceAlpha" type="matrix" values="0 0 0 0 0 0 0 0 0 0 0 0 0 0 0 0 0 0 127 0" result="hardAlpha"/>
<feOffset/>
<feGaussianBlur stdDeviation="43.1654"/>
<feComposite in2="hardAlpha" operator="out"/>
<feColorMatrix type="matrix" values="0 0 0 0 0.121569 0 0 0 0 0.215686 0 0 0 0 0.34902 0 0 0 1 0"/>
<feBlend mode="normal" in2="BackgroundImageFix" result="effect1_dropShadow_1776_1597"/>
<feBlend mode="normal" in="SourceGraphic" in2="effect1_dropShadow_1776_1597" result="shape"/>
</filter>
<linearGradient id="paint0_linear_1776_1597" x1="150.044" y1="134.392" x2="352.115" y2="352.117" gradientUnits="userSpaceOnUse">
<stop stop-color="#6FD3FF"/>
<stop offset="1" stop-color="#288AFE"/>
</linearGradient>
<linearGradient id="paint1_linear_1776_1597" x1="150.044" y1="134.392" x2="352.115" y2="352.117" gradientUnits="userSpaceOnUse">
<stop stop-color="#6FD3FF"/>
<stop offset="1" stop-color="#288AFE"/>
</linearGradient>
<linearGradient id="paint2_linear_1776_1597" x1="150.044" y1="134.392" x2="352.115" y2="352.117" gradientUnits="userSpaceOnUse">
<stop stop-color="#6FD3FF"/>
<stop offset="1" stop-color="#288AFE"/>
</linearGradient>
<linearGradient id="paint3_linear_1776_1597" x1="150.044" y1="134.392" x2="352.115" y2="352.117" gradientUnits="userSpaceOnUse">
<stop stop-color="#6FD3FF"/>
<stop offset="1" stop-color="#288AFE"/>
</linearGradient>
<linearGradient id="paint4_linear_1776_1597" x1="150.044" y1="134.392" x2="352.115" y2="352.117" gradientUnits="userSpaceOnUse">
<stop stop-color="#6FD3FF"/>
<stop offset="1" stop-color="#288AFE"/>
</linearGradient>
<linearGradient id="paint5_linear_1776_1597" x1="150.044" y1="134.392" x2="352.115" y2="352.117" gradientUnits="userSpaceOnUse">
<stop stop-color="#6FD3FF"/>
<stop offset="1" stop-color="#288AFE"/>
</linearGradient>
<linearGradient id="paint6_linear_1776_1597" x1="150.044" y1="134.392" x2="352.115" y2="352.117" gradientUnits="userSpaceOnUse">
<stop stop-color="#6FD3FF"/>
<stop offset="1" stop-color="#288AFE"/>
</linearGradient>
<linearGradient id="paint7_linear_1776_1597" x1="150.044" y1="134.392" x2="352.115" y2="352.117" gradientUnits="userSpaceOnUse">
<stop stop-color="#6FD3FF"/>
<stop offset="1" stop-color="#288AFE"/>
</linearGradient>
<linearGradient id="paint8_linear_1776_1597" x1="150.044" y1="134.392" x2="352.115" y2="352.117" gradientUnits="userSpaceOnUse">
<stop stop-color="#6FD3FF"/>
<stop offset="1" stop-color="#288AFE"/>
</linearGradient>
<linearGradient id="paint9_linear_1776_1597" x1="150.044" y1="134.392" x2="352.115" y2="352.117" gradientUnits="userSpaceOnUse">
<stop stop-color="#6FD3FF"/>
<stop offset="1" stop-color="#288AFE"/>
</linearGradient>
<linearGradient id="paint10_linear_1776_1597" x1="150.044" y1="134.392" x2="352.115" y2="352.117" gradientUnits="userSpaceOnUse">
<stop stop-color="#6FD3FF"/>
<stop offset="1" stop-color="#288AFE"/>
</linearGradient>
<linearGradient id="paint11_linear_1776_1597" x1="150.044" y1="134.392" x2="352.115" y2="352.117" gradientUnits="userSpaceOnUse">
<stop stop-color="#6FD3FF"/>
<stop offset="1" stop-color="#288AFE"/>
</linearGradient>
<clipPath id="clip0_1776_1597">
<rect width="476.546" height="476.546" rx="238.273" fill="white"/>
</clipPath>
</defs>
</svg>
