<svg width="497" height="497" viewBox="0 0 497 497" fill="none" xmlns="http://www.w3.org/2000/svg">
<g clip-path="url(#clip0_890_943)">
<g filter="url(#filter0_d_890_943)">
<rect x="23.4102" y="23.4102" width="450.181" height="450.181" rx="225.091" fill="#0A0C35"/>
<rect x="25.2109" y="25.2109" width="446.58" height="446.58" rx="223.29" stroke="#0075FF" stroke-width="3.60145"/>
<path d="M320.248 172.534C322.579 172.534 324.469 170.644 324.469 168.313C324.469 165.982 322.579 164.093 320.248 164.093C317.917 164.093 316.028 165.982 316.028 168.313C316.028 170.644 317.917 172.534 320.248 172.534Z" fill="url(#paint0_linear_890_943)"/>
<path d="M337.13 168.313C337.13 170.644 335.241 172.534 332.91 172.534C330.579 172.534 328.689 170.644 328.689 168.313C328.689 165.982 330.579 164.093 332.91 164.093C335.241 164.093 337.13 165.982 337.13 168.313Z" fill="url(#paint1_linear_890_943)"/>
<path d="M345.571 172.534C347.902 172.534 349.791 170.644 349.791 168.313C349.791 165.982 347.902 164.093 345.571 164.093C343.24 164.093 341.351 165.982 341.351 168.313C341.351 170.644 343.24 172.534 345.571 172.534Z" fill="url(#paint2_linear_890_943)"/>
<path fill-rule="evenodd" clip-rule="evenodd" d="M269.603 278.045C269.603 289.699 260.155 299.147 248.501 299.147C236.846 299.147 227.398 289.699 227.398 278.045C227.398 266.39 236.846 256.943 248.501 256.943C260.155 256.943 269.603 266.39 269.603 278.045ZM261.162 278.045C261.162 285.037 255.493 290.706 248.501 290.706C241.508 290.706 235.839 285.037 235.839 278.045C235.839 271.052 241.508 265.383 248.501 265.383C255.493 265.383 261.162 271.052 261.162 278.045Z" fill="url(#paint3_linear_890_943)"/>
<path fill-rule="evenodd" clip-rule="evenodd" d="M234.438 228.773C235.763 223.028 240.879 218.959 246.775 218.959H250.227C256.123 218.959 261.238 223.028 262.564 228.773L263.504 232.845C264.155 235.669 267.395 237.011 269.853 235.475L273.397 233.26C278.397 230.135 284.892 230.875 289.06 235.044L291.502 237.485C295.67 241.654 296.41 248.148 293.285 253.148L291.07 256.693C289.534 259.151 290.876 262.39 293.7 263.042L297.773 263.982C303.517 265.307 307.587 270.423 307.587 276.319V279.771C307.587 285.667 303.517 290.782 297.773 292.108L293.7 293.048C290.876 293.7 289.534 296.939 291.07 299.397L293.285 302.941C296.41 307.94 295.67 314.435 291.501 318.604L289.06 321.045C284.891 325.214 278.397 325.954 273.397 322.829L269.853 320.614C267.395 319.078 264.155 320.42 263.504 323.244L262.564 327.317C261.238 333.062 256.123 337.131 250.227 337.131H246.775C240.879 337.131 235.763 333.062 234.438 327.317L233.498 323.244C232.846 320.42 229.606 319.078 227.148 320.614L223.604 322.829C218.605 325.954 212.11 325.214 207.941 321.045L205.5 318.604C201.331 314.435 200.591 307.94 203.716 302.941L205.931 299.397C207.467 296.939 206.125 293.7 203.301 293.048L199.229 292.108C193.484 290.782 189.414 285.667 189.414 279.771V276.319C189.414 270.423 193.484 265.307 199.229 263.982L203.301 263.042C206.126 262.39 207.468 259.151 205.931 256.693L203.716 253.148C200.591 248.148 201.331 241.654 205.5 237.485L207.941 235.044C212.11 230.875 218.605 230.135 223.604 233.26L227.149 235.475C229.607 237.011 232.846 235.669 233.498 232.845L234.438 228.773ZM246.775 227.399C244.809 227.399 243.104 228.756 242.662 230.671L241.723 234.743C239.767 243.216 230.049 247.241 222.675 242.633L219.131 240.418C217.464 239.376 215.299 239.623 213.909 241.012L211.468 243.453C210.079 244.843 209.832 247.008 210.874 248.674L213.089 252.219C217.698 259.593 213.672 269.311 205.199 271.267L201.127 272.206C199.212 272.648 197.855 274.353 197.855 276.319V279.771C197.855 281.736 199.212 283.441 201.127 283.883L205.199 284.823C213.672 286.778 217.697 296.497 213.089 303.871L210.874 307.414C209.832 309.081 210.079 311.246 211.469 312.636L213.91 315.077C215.299 316.466 217.464 316.713 219.131 315.671L222.675 313.456C230.049 308.847 239.767 312.873 241.722 321.346L242.662 325.419C243.104 327.334 244.809 328.69 246.775 328.69H250.227C252.192 328.69 253.897 327.334 254.339 325.419L255.279 321.346C257.234 312.873 266.953 308.847 274.327 313.456L277.871 315.671C279.537 316.713 281.702 316.466 283.092 315.077L285.533 312.636C286.922 311.246 287.169 309.081 286.127 307.414L283.913 303.871C279.304 296.497 283.329 286.778 291.802 284.823L295.875 283.883C297.79 283.441 299.146 281.736 299.146 279.771V276.319C299.146 274.353 297.79 272.648 295.875 272.206L291.802 271.267C283.329 269.311 279.303 259.593 283.912 252.219L286.128 248.674C287.169 247.008 286.923 244.843 285.533 243.453L283.092 241.012C281.702 239.623 279.537 239.376 277.871 240.418L274.326 242.633C266.952 247.241 257.234 243.216 255.279 234.743L254.339 230.671C253.897 228.756 252.192 227.399 250.227 227.399H246.775Z" fill="url(#paint4_linear_890_943)"/>
<path d="M252.721 206.297C252.721 201.635 256.5 197.856 261.162 197.856H341.351C346.012 197.856 349.791 201.635 349.791 206.297V235.84C349.791 240.502 346.012 244.281 341.351 244.281H311.807C309.477 244.281 307.587 242.392 307.587 240.061C307.587 237.73 309.477 235.84 311.807 235.84H341.351V206.297H261.162V210.518C261.162 212.849 259.272 214.738 256.942 214.738C254.611 214.738 252.721 212.849 252.721 210.518V206.297Z" fill="url(#paint5_linear_890_943)"/>
<path d="M235.839 197.856C240.501 197.856 244.28 201.635 244.28 206.297V210.518C244.28 212.849 242.391 214.738 240.06 214.738C237.729 214.738 235.839 212.849 235.839 210.518V206.297H155.651V235.84H185.194C187.525 235.84 189.414 237.73 189.414 240.061C189.414 242.392 187.525 244.281 185.194 244.281H155.651C150.989 244.281 147.21 240.502 147.21 235.84V206.297C147.21 201.635 150.989 197.856 155.651 197.856H235.839Z" fill="url(#paint6_linear_890_943)"/>
<path d="M307.587 256.943C307.587 254.612 309.477 252.722 311.807 252.722H341.351C346.012 252.722 349.791 256.501 349.791 261.163V328.69C349.791 333.352 346.012 337.131 341.351 337.131H294.926C292.595 337.131 290.705 335.242 290.705 332.911C290.705 330.58 292.595 328.69 294.926 328.69H341.351V261.163H311.807C309.477 261.163 307.587 259.273 307.587 256.943Z" fill="url(#paint7_linear_890_943)"/>
<path d="M185.194 252.722C187.525 252.722 189.414 254.612 189.414 256.943C189.414 259.273 187.525 261.163 185.194 261.163H155.651V328.69H202.076C204.407 328.69 206.296 330.58 206.296 332.911C206.296 335.242 204.407 337.131 202.076 337.131H155.651C150.989 337.131 147.21 333.352 147.21 328.69V261.163C147.21 256.501 150.989 252.722 155.651 252.722H185.194Z" fill="url(#paint8_linear_890_943)"/>
<path fill-rule="evenodd" clip-rule="evenodd" d="M130.328 155.652V345.572C130.328 350.234 134.107 354.013 138.769 354.013H358.232C362.894 354.013 366.673 350.234 366.673 345.572V155.652C366.673 150.99 362.894 147.211 358.232 147.211H138.769C134.107 147.211 130.328 150.99 130.328 155.652ZM358.232 155.652H138.769V180.975H358.232V155.652ZM358.232 189.415H138.769V345.572H358.232V189.415Z" fill="url(#paint9_linear_890_943)"/>
</g>
</g>
<rect x="1.80072" y="1.80072" width="493.399" height="493.399" rx="246.699" stroke="#4A4A4A" stroke-width="3.60145" stroke-dasharray="7.2 7.2"/>
<defs>
<filter id="filter0_d_890_943" x="-66.6261" y="-66.6261" width="630.254" height="630.254" filterUnits="userSpaceOnUse" color-interpolation-filters="sRGB">
<feFlood flood-opacity="0" result="BackgroundImageFix"/>
<feColorMatrix in="SourceAlpha" type="matrix" values="0 0 0 0 0 0 0 0 0 0 0 0 0 0 0 0 0 0 127 0" result="hardAlpha"/>
<feOffset/>
<feGaussianBlur stdDeviation="45.0181"/>
<feComposite in2="hardAlpha" operator="out"/>
<feColorMatrix type="matrix" values="0 0 0 0 0.069255 0 0 0 0 0.275775 0 0 0 0 0.564904 0 0 0 1 0"/>
<feBlend mode="normal" in2="BackgroundImageFix" result="effect1_dropShadow_890_943"/>
<feBlend mode="normal" in="SourceGraphic" in2="effect1_dropShadow_890_943" result="shape"/>
</filter>
<linearGradient id="paint0_linear_890_943" x1="156.486" y1="155.814" x2="337.466" y2="378.671" gradientUnits="userSpaceOnUse">
<stop stop-color="#6FD3FF"/>
<stop offset="1" stop-color="#288AFE"/>
</linearGradient>
<linearGradient id="paint1_linear_890_943" x1="156.486" y1="155.814" x2="337.466" y2="378.671" gradientUnits="userSpaceOnUse">
<stop stop-color="#6FD3FF"/>
<stop offset="1" stop-color="#288AFE"/>
</linearGradient>
<linearGradient id="paint2_linear_890_943" x1="156.486" y1="155.814" x2="337.466" y2="378.671" gradientUnits="userSpaceOnUse">
<stop stop-color="#6FD3FF"/>
<stop offset="1" stop-color="#288AFE"/>
</linearGradient>
<linearGradient id="paint3_linear_890_943" x1="156.486" y1="155.814" x2="337.466" y2="378.671" gradientUnits="userSpaceOnUse">
<stop stop-color="#6FD3FF"/>
<stop offset="1" stop-color="#288AFE"/>
</linearGradient>
<linearGradient id="paint4_linear_890_943" x1="156.486" y1="155.814" x2="337.466" y2="378.671" gradientUnits="userSpaceOnUse">
<stop stop-color="#6FD3FF"/>
<stop offset="1" stop-color="#288AFE"/>
</linearGradient>
<linearGradient id="paint5_linear_890_943" x1="156.486" y1="155.814" x2="337.466" y2="378.671" gradientUnits="userSpaceOnUse">
<stop stop-color="#6FD3FF"/>
<stop offset="1" stop-color="#288AFE"/>
</linearGradient>
<linearGradient id="paint6_linear_890_943" x1="156.486" y1="155.814" x2="337.466" y2="378.671" gradientUnits="userSpaceOnUse">
<stop stop-color="#6FD3FF"/>
<stop offset="1" stop-color="#288AFE"/>
</linearGradient>
<linearGradient id="paint7_linear_890_943" x1="156.486" y1="155.814" x2="337.466" y2="378.671" gradientUnits="userSpaceOnUse">
<stop stop-color="#6FD3FF"/>
<stop offset="1" stop-color="#288AFE"/>
</linearGradient>
<linearGradient id="paint8_linear_890_943" x1="156.486" y1="155.814" x2="337.466" y2="378.671" gradientUnits="userSpaceOnUse">
<stop stop-color="#6FD3FF"/>
<stop offset="1" stop-color="#288AFE"/>
</linearGradient>
<linearGradient id="paint9_linear_890_943" x1="156.486" y1="155.814" x2="337.466" y2="378.671" gradientUnits="userSpaceOnUse">
<stop stop-color="#6FD3FF"/>
<stop offset="1" stop-color="#288AFE"/>
</linearGradient>
<clipPath id="clip0_890_943">
<rect width="497" height="497" rx="248.5" fill="white"/>
</clipPath>
</defs>
</svg>
