<svg width="477" height="477" viewBox="0 0 477 477" fill="none" xmlns="http://www.w3.org/2000/svg">
<g clip-path="url(#clip0_1517_2700)">
<g filter="url(#filter0_d_1517_2700)">
<rect x="22.4453" y="22.4453" width="431.654" height="431.654" rx="215.827" fill="#04081D"/>
<rect x="24.1719" y="24.1719" width="428.2" height="428.2" rx="214.1" stroke="#9DC6FF" stroke-opacity="0.6" stroke-width="3.45323"/>
<path d="M267.495 156.572C265.316 156.077 263.147 157.442 262.652 159.622C262.157 161.801 263.523 163.969 265.702 164.464C270.204 165.487 274.423 166.592 278.644 167.698C281.983 168.572 285.324 169.447 288.808 170.282C294.954 171.755 301.1 172.979 307.066 173.383L307.066 213.991C307.066 216.226 308.878 218.038 311.113 218.038C313.348 218.038 315.159 216.226 315.159 213.991L315.16 165.43H311.113C304.88 165.43 298.085 164.183 290.694 162.411C287.659 161.684 284.378 160.828 281.006 159.948C276.544 158.784 271.921 157.577 267.495 156.572Z" fill="url(#paint0_linear_1517_2700)"/>
<path d="M219.041 164.931C221.206 164.376 222.512 162.172 221.958 160.007C221.404 157.841 219.199 156.536 217.034 157.09C213.762 157.927 210.51 158.835 207.329 159.724L206.544 159.943C203.096 160.905 199.733 161.836 196.416 162.655C189.767 164.296 183.509 165.43 177.57 165.43H173.523V213.991C173.523 216.226 175.335 218.038 177.57 218.038C179.805 218.038 181.617 216.226 181.617 213.991V173.381C187.199 172.998 192.814 171.88 198.356 170.512C201.806 169.661 205.278 168.699 208.719 167.738L209.489 167.524C212.687 166.631 215.858 165.745 219.041 164.931Z" fill="url(#paint1_linear_1517_2700)"/>
<path d="M310.879 263.849C311.595 261.732 310.459 259.435 308.342 258.719C306.225 258.003 303.928 259.138 303.212 261.255C297.844 277.121 286.339 294.982 264.991 306.47C263.022 307.529 262.285 309.983 263.344 311.951C264.404 313.919 266.857 314.656 268.826 313.597C292.314 300.958 304.986 281.265 310.879 263.849Z" fill="url(#paint2_linear_1517_2700)"/>
<path d="M184.671 261.446C184.06 259.296 181.822 258.049 179.672 258.66C177.523 259.271 176.275 261.509 176.886 263.659C181.835 281.072 193.109 300.871 216.079 313.575C218.035 314.656 220.497 313.948 221.579 311.992C222.66 310.036 221.952 307.574 219.996 306.492C199.344 295.07 189.18 277.313 184.671 261.446Z" fill="url(#paint3_linear_1517_2700)"/>
<path d="M242.318 262.552C246.788 262.552 250.411 258.929 250.411 254.459C250.411 249.989 246.788 246.365 242.318 246.365C237.848 246.365 234.224 249.989 234.224 254.459C234.224 258.929 237.848 262.552 242.318 262.552Z" fill="url(#paint4_linear_1517_2700)"/>
<path fill-rule="evenodd" clip-rule="evenodd" d="M222.084 222.085V205.898C222.084 194.723 231.143 185.664 242.318 185.664C253.492 185.664 262.551 194.723 262.551 205.898V222.085H266.598C273.303 222.085 278.738 227.52 278.738 234.225V266.599C278.738 273.304 273.303 278.739 266.598 278.739H218.037C211.332 278.739 205.897 273.304 205.897 266.599V234.225C205.897 227.52 211.332 222.085 218.037 222.085H222.084ZM254.458 205.898V222.085H230.177V205.898C230.177 199.193 235.613 193.758 242.318 193.758C249.023 193.758 254.458 199.193 254.458 205.898ZM218.037 230.178C215.802 230.178 213.99 231.99 213.99 234.225V266.599C213.99 268.834 215.802 270.646 218.037 270.646H266.598C268.833 270.646 270.645 268.834 270.645 266.599V234.225C270.645 231.99 268.833 230.178 266.598 230.178H218.037Z" fill="url(#paint5_linear_1517_2700)"/>
<path fill-rule="evenodd" clip-rule="evenodd" d="M219.724 124.173C228.321 122.27 236.279 120.916 242.318 120.916C248.845 120.916 257.038 122.262 265.757 124.171C274.529 126.092 284.103 128.646 293.452 131.173L295.996 131.861C304.491 134.16 312.721 136.387 320.06 138.093C328.208 139.988 334.89 141.15 339.441 141.15H343.487V206.189C343.488 229.304 343.488 257.876 330.975 284.988C318.297 312.455 293.065 337.901 243.669 355.395L242.358 355.86L241.039 355.42C191.488 338.903 166.277 311.856 153.638 283.418C141.147 255.315 141.148 226.271 141.148 206.104L141.149 141.15H145.196C149.753 141.15 156.566 139.986 164.877 138.09C172.722 136.3 181.578 133.938 190.629 131.523L191.955 131.17C201.426 128.644 211.057 126.092 219.724 124.173ZM149.242 149.046L149.242 205.898C149.242 214.3 149.249 223.938 150.092 234.225H166.12C167.787 229.51 172.284 226.132 177.57 226.132C184.274 226.132 189.71 231.567 189.71 238.272C189.71 244.977 184.274 250.412 177.57 250.412C172.284 250.412 167.787 247.034 166.12 242.319H150.926C152.464 254.562 155.406 267.47 161.034 280.131C172.232 305.327 194.266 329.938 238.271 345.89V330.656C233.556 328.99 230.177 324.493 230.177 319.207C230.177 312.502 235.613 307.067 242.318 307.067C249.023 307.067 254.458 312.502 254.458 319.207C254.458 324.493 251.08 328.99 246.364 330.656V345.785C290.471 329.007 312.469 305.77 323.626 281.596C329.586 268.683 332.528 255.365 333.979 242.319H322.562C320.895 247.034 316.398 250.412 311.112 250.412C304.408 250.412 298.972 244.977 298.972 238.272C298.972 231.567 304.408 226.132 311.112 226.132C316.398 226.132 320.895 229.51 322.562 234.225H334.705C335.386 224.448 335.394 214.907 335.394 205.898V149.044C330.462 148.599 324.549 147.447 318.227 145.977C310.738 144.235 302.365 141.969 293.905 139.68L291.341 138.986C281.974 136.455 272.579 133.95 264.026 132.077C257.348 130.615 251.343 129.575 246.364 129.182V145.887C251.08 147.554 254.458 152.051 254.458 157.337C254.458 164.042 249.023 169.477 242.318 169.477C235.613 169.477 230.177 164.042 230.177 157.337C230.177 152.051 233.556 147.554 238.271 145.887V129.209C233.666 129.619 227.95 130.641 221.473 132.075C213.004 133.95 203.54 136.457 194.041 138.99L192.657 139.359C183.658 141.759 174.67 144.157 166.677 145.98C160.23 147.451 154.212 148.602 149.242 149.046ZM242.318 161.384C244.553 161.384 246.364 159.572 246.364 157.337C246.364 155.102 244.553 153.29 242.318 153.29C240.083 153.29 238.271 155.102 238.271 157.337C238.271 159.572 240.083 161.384 242.318 161.384ZM315.159 238.272C315.159 240.507 313.347 242.319 311.112 242.319C308.877 242.319 307.066 240.507 307.066 238.272C307.066 236.037 308.877 234.225 311.112 234.225C313.347 234.225 315.159 236.037 315.159 238.272ZM242.318 323.254C244.553 323.254 246.364 321.442 246.364 319.207C246.364 316.972 244.553 315.16 242.318 315.16C240.083 315.16 238.271 316.972 238.271 319.207C238.271 321.442 240.083 323.254 242.318 323.254ZM181.616 238.272C181.616 240.507 179.805 242.319 177.57 242.319C175.335 242.319 173.523 240.507 173.523 238.272C173.523 236.037 175.335 234.225 177.57 234.225C179.805 234.225 181.616 236.037 181.616 238.272Z" fill="url(#paint6_linear_1517_2700)"/>
</g>
</g>
<defs>
<filter id="filter0_d_1517_2700" x="-63.8854" y="-63.8854" width="604.316" height="604.316" filterUnits="userSpaceOnUse" color-interpolation-filters="sRGB">
<feFlood flood-opacity="0" result="BackgroundImageFix"/>
<feColorMatrix in="SourceAlpha" type="matrix" values="0 0 0 0 0 0 0 0 0 0 0 0 0 0 0 0 0 0 127 0" result="hardAlpha"/>
<feOffset/>
<feGaussianBlur stdDeviation="43.1654"/>
<feComposite in2="hardAlpha" operator="out"/>
<feColorMatrix type="matrix" values="0 0 0 0 0.121569 0 0 0 0 0.215686 0 0 0 0 0.34902 0 0 0 1 0"/>
<feBlend mode="normal" in2="BackgroundImageFix" result="effect1_dropShadow_1517_2700"/>
<feBlend mode="normal" in="SourceGraphic" in2="effect1_dropShadow_1517_2700" result="shape"/>
</filter>
<linearGradient id="paint0_linear_1517_2700" x1="163.542" y1="130.69" x2="373.034" y2="325.085" gradientUnits="userSpaceOnUse">
<stop stop-color="#6FD3FF"/>
<stop offset="1" stop-color="#288AFE"/>
</linearGradient>
<linearGradient id="paint1_linear_1517_2700" x1="163.542" y1="130.69" x2="373.034" y2="325.085" gradientUnits="userSpaceOnUse">
<stop stop-color="#6FD3FF"/>
<stop offset="1" stop-color="#288AFE"/>
</linearGradient>
<linearGradient id="paint2_linear_1517_2700" x1="163.542" y1="130.69" x2="373.034" y2="325.085" gradientUnits="userSpaceOnUse">
<stop stop-color="#6FD3FF"/>
<stop offset="1" stop-color="#288AFE"/>
</linearGradient>
<linearGradient id="paint3_linear_1517_2700" x1="163.542" y1="130.69" x2="373.034" y2="325.085" gradientUnits="userSpaceOnUse">
<stop stop-color="#6FD3FF"/>
<stop offset="1" stop-color="#288AFE"/>
</linearGradient>
<linearGradient id="paint4_linear_1517_2700" x1="163.542" y1="130.69" x2="373.034" y2="325.085" gradientUnits="userSpaceOnUse">
<stop stop-color="#6FD3FF"/>
<stop offset="1" stop-color="#288AFE"/>
</linearGradient>
<linearGradient id="paint5_linear_1517_2700" x1="163.542" y1="130.69" x2="373.034" y2="325.085" gradientUnits="userSpaceOnUse">
<stop stop-color="#6FD3FF"/>
<stop offset="1" stop-color="#288AFE"/>
</linearGradient>
<linearGradient id="paint6_linear_1517_2700" x1="163.542" y1="130.69" x2="373.034" y2="325.085" gradientUnits="userSpaceOnUse">
<stop stop-color="#6FD3FF"/>
<stop offset="1" stop-color="#288AFE"/>
</linearGradient>
<clipPath id="clip0_1517_2700">
<rect width="476.546" height="476.546" rx="238.273" fill="white"/>
</clipPath>
</defs>
</svg>
