<svg width="477" height="477" viewBox="0 0 477 477" fill="none" xmlns="http://www.w3.org/2000/svg">
<g clip-path="url(#clip0_1517_2696)">
<g filter="url(#filter0_d_1517_2696)">
<rect x="22.4453" y="22.4453" width="431.654" height="431.654" rx="215.827" fill="#04081D"/>
<rect x="24.1719" y="24.1719" width="428.2" height="428.2" rx="214.1" stroke="#9DC6FF" stroke-opacity="0.6" stroke-width="3.45323"/>
<path d="M307.067 165.429C309.302 165.429 311.114 163.617 311.114 161.382C311.114 159.147 309.302 157.335 307.067 157.335C304.832 157.335 303.02 159.147 303.02 161.382C303.02 163.617 304.832 165.429 307.067 165.429Z" fill="url(#paint0_linear_1517_2696)"/>
<path d="M323.254 161.382C323.254 163.617 321.442 165.429 319.207 165.429C316.972 165.429 315.16 163.617 315.16 161.382C315.16 159.147 316.972 157.335 319.207 157.335C321.442 157.335 323.254 159.147 323.254 161.382Z" fill="url(#paint1_linear_1517_2696)"/>
<path d="M331.347 165.429C333.582 165.429 335.394 163.617 335.394 161.382C335.394 159.147 333.582 157.335 331.347 157.335C329.112 157.335 327.301 159.147 327.301 161.382C327.301 163.617 329.112 165.429 331.347 165.429Z" fill="url(#paint2_linear_1517_2696)"/>
<path fill-rule="evenodd" clip-rule="evenodd" d="M258.506 266.598C258.506 277.773 249.447 286.832 238.272 286.832C227.097 286.832 218.038 277.773 218.038 266.598C218.038 255.423 227.097 246.364 238.272 246.364C249.447 246.364 258.506 255.423 258.506 266.598ZM250.412 266.598C250.412 273.303 244.977 278.738 238.272 278.738C231.567 278.738 226.132 273.303 226.132 266.598C226.132 259.893 231.567 254.458 238.272 254.458C244.977 254.458 250.412 259.893 250.412 266.598Z" fill="url(#paint3_linear_1517_2696)"/>
<path fill-rule="evenodd" clip-rule="evenodd" d="M224.788 219.354C226.059 213.845 230.964 209.943 236.617 209.943H239.927C245.58 209.943 250.485 213.845 251.756 219.354L252.657 223.258C253.282 225.966 256.388 227.253 258.745 225.78L262.144 223.656C266.938 220.66 273.165 221.369 277.163 225.366L279.503 227.707C283.5 231.704 284.21 237.932 281.214 242.726L279.089 246.124C277.616 248.481 278.903 251.587 281.611 252.212L285.516 253.113C291.025 254.385 294.926 259.29 294.926 264.943V268.253C294.926 273.906 291.024 278.811 285.516 280.082L281.611 280.983C278.903 281.608 277.617 284.714 279.09 287.071L281.213 290.469C284.21 295.263 283.5 301.49 279.503 305.488L277.162 307.828C273.165 311.826 266.938 312.535 262.144 309.539L258.745 307.415C256.389 305.942 253.282 307.229 252.658 309.937L251.756 313.842C250.485 319.35 245.58 323.252 239.927 323.252H236.617C230.964 323.252 226.059 319.35 224.788 313.842L223.886 309.937C223.261 307.229 220.155 305.942 217.798 307.415L214.4 309.539C209.606 312.535 203.379 311.826 199.382 307.828L197.041 305.488C193.044 301.49 192.334 295.263 195.33 290.469L197.454 287.071C198.927 284.714 197.641 281.608 194.933 280.983L191.028 280.082C185.519 278.811 181.617 273.906 181.617 268.253V264.943C181.617 259.29 185.519 254.385 191.028 253.113L194.933 252.212C197.641 251.587 198.928 248.481 197.455 246.124L195.33 242.726C192.334 237.932 193.043 231.704 197.041 227.707L199.381 225.366C203.379 221.369 209.606 220.66 214.4 223.656L217.799 225.78C220.155 227.253 223.262 225.966 223.887 223.258L224.788 219.354ZM236.617 218.037C234.733 218.037 233.098 219.337 232.674 221.174L231.773 225.078C229.898 233.202 220.58 237.062 213.509 232.643L210.111 230.519C208.513 229.52 206.437 229.757 205.104 231.089L202.764 233.43C201.431 234.762 201.195 236.838 202.194 238.436L204.318 241.835C208.737 248.905 204.877 258.224 196.753 260.098L192.848 261C191.012 261.423 189.711 263.058 189.711 264.943V268.253C189.711 270.137 191.012 271.772 192.848 272.196L196.752 273.097C204.877 274.972 208.737 284.29 204.317 291.361L202.194 294.759C201.195 296.357 201.431 298.432 202.764 299.765L205.104 302.105C206.437 303.438 208.513 303.674 210.111 302.676L213.509 300.552C220.579 296.133 229.898 299.992 231.773 308.117L232.674 312.022C233.098 313.858 234.733 315.159 236.617 315.159H239.927C241.811 315.159 243.446 313.858 243.87 312.022L244.771 308.117C246.646 299.992 255.965 296.133 263.035 300.552L266.433 302.676C268.031 303.674 270.107 303.438 271.439 302.105L273.78 299.765C275.112 298.432 275.349 296.357 274.35 294.759L272.226 291.361C267.807 284.29 271.667 274.972 279.792 273.097L283.696 272.196C285.532 271.772 286.833 270.137 286.833 268.253V264.943C286.833 263.058 285.532 261.423 283.696 261L279.791 260.098C271.667 258.224 267.807 248.905 272.226 241.835L274.35 238.436C275.349 236.838 275.113 234.762 273.78 233.43L271.44 231.089C270.107 229.757 268.031 229.52 266.433 230.519L263.035 232.643C255.964 237.062 246.646 233.202 244.771 225.078L243.87 221.174C243.446 219.337 241.811 218.037 239.927 218.037H236.617Z" fill="url(#paint4_linear_1517_2696)"/>
<path d="M242.319 197.803C242.319 193.333 245.942 189.709 250.412 189.709H327.301C331.77 189.709 335.394 193.333 335.394 197.803V226.13C335.394 230.6 331.77 234.224 327.301 234.224H298.973C296.738 234.224 294.926 232.412 294.926 230.177C294.926 227.942 296.738 226.13 298.973 226.13H327.301V197.803H250.412V201.85C250.412 204.085 248.6 205.896 246.365 205.896C244.131 205.896 242.319 204.085 242.319 201.85V197.803Z" fill="url(#paint5_linear_1517_2696)"/>
<path d="M226.132 189.709C230.602 189.709 234.225 193.333 234.225 197.803V201.85C234.225 204.085 232.413 205.896 230.178 205.896C227.943 205.896 226.132 204.085 226.132 201.85V197.803H149.243V226.13H177.571C179.806 226.13 181.617 227.942 181.617 230.177C181.617 232.412 179.806 234.224 177.571 234.224H149.243C144.773 234.224 141.15 230.6 141.15 226.13V197.803C141.15 193.333 144.773 189.709 149.243 189.709H226.132Z" fill="url(#paint6_linear_1517_2696)"/>
<path d="M294.926 246.364C294.926 244.129 296.738 242.317 298.973 242.317H327.301C331.77 242.317 335.394 245.941 335.394 250.411V315.159C335.394 319.629 331.77 323.252 327.301 323.252H282.786C280.551 323.252 278.739 321.441 278.739 319.206C278.739 316.971 280.551 315.159 282.786 315.159H327.301V250.411H298.973C296.738 250.411 294.926 248.599 294.926 246.364Z" fill="url(#paint7_linear_1517_2696)"/>
<path d="M177.571 242.317C179.806 242.317 181.617 244.129 181.617 246.364C181.617 248.599 179.806 250.411 177.571 250.411H149.243V315.159H193.758C195.993 315.159 197.804 316.971 197.804 319.206C197.804 321.441 195.993 323.252 193.758 323.252H149.243C144.773 323.252 141.15 319.629 141.15 315.159V250.411C141.15 245.941 144.773 242.317 149.243 242.317H177.571Z" fill="url(#paint8_linear_1517_2696)"/>
<path fill-rule="evenodd" clip-rule="evenodd" d="M124.963 149.242V331.346C124.963 335.816 128.586 339.439 133.056 339.439H343.488C347.957 339.439 351.581 335.816 351.581 331.346V149.242C351.581 144.772 347.957 141.148 343.488 141.148H133.056C128.586 141.148 124.963 144.772 124.963 149.242ZM343.488 149.242H133.056V173.522H343.488V149.242ZM343.488 181.616H133.056V331.346H343.488V181.616Z" fill="url(#paint9_linear_1517_2696)"/>
</g>
</g>
<defs>
<filter id="filter0_d_1517_2696" x="-63.8854" y="-63.8854" width="604.316" height="604.316" filterUnits="userSpaceOnUse" color-interpolation-filters="sRGB">
<feFlood flood-opacity="0" result="BackgroundImageFix"/>
<feColorMatrix in="SourceAlpha" type="matrix" values="0 0 0 0 0 0 0 0 0 0 0 0 0 0 0 0 0 0 127 0" result="hardAlpha"/>
<feOffset/>
<feGaussianBlur stdDeviation="43.1654"/>
<feComposite in2="hardAlpha" operator="out"/>
<feColorMatrix type="matrix" values="0 0 0 0 0.121569 0 0 0 0 0.215686 0 0 0 0 0.34902 0 0 0 1 0"/>
<feBlend mode="normal" in2="BackgroundImageFix" result="effect1_dropShadow_1517_2696"/>
<feBlend mode="normal" in="SourceGraphic" in2="effect1_dropShadow_1517_2696" result="shape"/>
</filter>
<linearGradient id="paint0_linear_1517_2696" x1="150.044" y1="149.398" x2="323.576" y2="363.083" gradientUnits="userSpaceOnUse">
<stop stop-color="#6FD3FF"/>
<stop offset="1" stop-color="#288AFE"/>
</linearGradient>
<linearGradient id="paint1_linear_1517_2696" x1="150.044" y1="149.398" x2="323.576" y2="363.083" gradientUnits="userSpaceOnUse">
<stop stop-color="#6FD3FF"/>
<stop offset="1" stop-color="#288AFE"/>
</linearGradient>
<linearGradient id="paint2_linear_1517_2696" x1="150.044" y1="149.398" x2="323.576" y2="363.083" gradientUnits="userSpaceOnUse">
<stop stop-color="#6FD3FF"/>
<stop offset="1" stop-color="#288AFE"/>
</linearGradient>
<linearGradient id="paint3_linear_1517_2696" x1="150.044" y1="149.398" x2="323.576" y2="363.083" gradientUnits="userSpaceOnUse">
<stop stop-color="#6FD3FF"/>
<stop offset="1" stop-color="#288AFE"/>
</linearGradient>
<linearGradient id="paint4_linear_1517_2696" x1="150.044" y1="149.398" x2="323.576" y2="363.083" gradientUnits="userSpaceOnUse">
<stop stop-color="#6FD3FF"/>
<stop offset="1" stop-color="#288AFE"/>
</linearGradient>
<linearGradient id="paint5_linear_1517_2696" x1="150.044" y1="149.398" x2="323.576" y2="363.083" gradientUnits="userSpaceOnUse">
<stop stop-color="#6FD3FF"/>
<stop offset="1" stop-color="#288AFE"/>
</linearGradient>
<linearGradient id="paint6_linear_1517_2696" x1="150.044" y1="149.398" x2="323.576" y2="363.083" gradientUnits="userSpaceOnUse">
<stop stop-color="#6FD3FF"/>
<stop offset="1" stop-color="#288AFE"/>
</linearGradient>
<linearGradient id="paint7_linear_1517_2696" x1="150.044" y1="149.398" x2="323.576" y2="363.083" gradientUnits="userSpaceOnUse">
<stop stop-color="#6FD3FF"/>
<stop offset="1" stop-color="#288AFE"/>
</linearGradient>
<linearGradient id="paint8_linear_1517_2696" x1="150.044" y1="149.398" x2="323.576" y2="363.083" gradientUnits="userSpaceOnUse">
<stop stop-color="#6FD3FF"/>
<stop offset="1" stop-color="#288AFE"/>
</linearGradient>
<linearGradient id="paint9_linear_1517_2696" x1="150.044" y1="149.398" x2="323.576" y2="363.083" gradientUnits="userSpaceOnUse">
<stop stop-color="#6FD3FF"/>
<stop offset="1" stop-color="#288AFE"/>
</linearGradient>
<clipPath id="clip0_1517_2696">
<rect width="476.546" height="476.546" rx="238.273" fill="white"/>
</clipPath>
</defs>
</svg>
