<svg width="497" height="497" viewBox="0 0 497 497" fill="none" xmlns="http://www.w3.org/2000/svg">
<g clip-path="url(#clip0_890_939)">
<g filter="url(#filter0_d_890_939)">
<rect x="23.4102" y="23.4102" width="450.181" height="450.181" rx="225.091" fill="#0A0C35"/>
<rect x="25.2109" y="25.2109" width="446.58" height="446.58" rx="223.29" stroke="#0075FF" stroke-width="3.60145"/>
<path d="M278.981 163.296C276.708 162.779 274.446 164.203 273.93 166.476C273.414 168.749 274.838 171.011 277.111 171.527C281.806 172.594 286.206 173.746 290.608 174.899C294.091 175.811 297.575 176.723 301.208 177.594C307.618 179.13 314.028 180.407 320.251 180.828L320.25 223.18C320.25 225.511 322.14 227.4 324.47 227.4C326.801 227.4 328.691 225.511 328.691 223.18L328.692 172.534H324.471C317.97 172.534 310.884 171.233 303.175 169.386C300.01 168.627 296.589 167.734 293.072 166.817C288.418 165.602 283.596 164.344 278.981 163.296Z" fill="url(#paint0_linear_890_939)"/>
<path d="M228.447 172.013C230.705 171.435 232.067 169.136 231.489 166.878C230.911 164.62 228.612 163.258 226.354 163.836C222.941 164.709 219.549 165.656 216.232 166.583L215.413 166.811C211.817 167.815 208.31 168.786 204.851 169.64C197.916 171.351 191.39 172.534 185.196 172.534H180.975V223.18C180.975 225.511 182.865 227.4 185.196 227.4C187.527 227.4 189.416 225.511 189.416 223.18V180.826C195.238 180.426 201.095 179.261 206.874 177.835C210.472 176.947 214.093 175.943 217.682 174.942L218.485 174.717C221.82 173.786 225.127 172.863 228.447 172.013Z" fill="url(#paint1_linear_890_939)"/>
<path d="M324.226 275.178C324.973 272.97 323.789 270.574 321.581 269.827C319.373 269.08 316.978 270.264 316.231 272.472C310.632 289.019 298.634 307.647 276.369 319.628C274.316 320.732 273.547 323.291 274.652 325.344C275.756 327.397 278.316 328.165 280.368 327.061C304.864 313.88 318.08 293.341 324.226 275.178Z" fill="url(#paint2_linear_890_939)"/>
<path d="M192.602 272.671C191.965 270.429 189.631 269.128 187.388 269.765C185.146 270.403 183.845 272.737 184.482 274.979C189.643 293.14 201.402 313.788 225.358 327.037C227.397 328.166 229.965 327.427 231.093 325.387C232.222 323.347 231.483 320.779 229.443 319.651C207.904 307.739 197.305 289.22 192.602 272.671Z" fill="url(#paint3_linear_890_939)"/>
<path d="M252.723 273.825C257.384 273.825 261.163 270.046 261.163 265.384C261.163 260.722 257.384 256.943 252.723 256.943C248.061 256.943 244.282 260.722 244.282 265.384C244.282 270.046 248.061 273.825 252.723 273.825Z" fill="url(#paint4_linear_890_939)"/>
<path fill-rule="evenodd" clip-rule="evenodd" d="M231.62 231.621V214.739C231.62 203.084 241.068 193.637 252.723 193.637C264.377 193.637 273.825 203.084 273.825 214.739V231.621H278.045C285.038 231.621 290.707 237.289 290.707 244.282V278.046C290.707 285.038 285.038 290.707 278.045 290.707H227.4C220.407 290.707 214.739 285.038 214.739 278.046V244.282C214.739 237.289 220.407 231.621 227.4 231.621H231.62ZM265.384 214.739V231.621H240.061V214.739C240.061 207.746 245.73 202.077 252.723 202.077C259.715 202.077 265.384 207.746 265.384 214.739ZM227.4 240.061C225.069 240.061 223.179 241.951 223.179 244.282V278.046C223.179 280.376 225.069 282.266 227.4 282.266H278.045C280.376 282.266 282.266 280.376 282.266 278.046V244.282C282.266 241.951 280.376 240.061 278.045 240.061H227.4Z" fill="url(#paint5_linear_890_939)"/>
<path fill-rule="evenodd" clip-rule="evenodd" d="M229.159 129.506C238.125 127.521 246.425 126.109 252.723 126.109C259.53 126.109 268.075 127.513 277.168 129.504C286.316 131.508 296.302 134.171 306.052 136.807L308.705 137.524C317.564 139.921 326.148 142.244 333.802 144.024C342.3 146 349.269 147.212 354.014 147.212H358.235V215.042C358.235 239.15 358.235 268.948 345.185 297.223C331.964 325.869 305.648 352.408 254.132 370.653L252.765 371.138L251.389 370.679C199.711 353.453 173.418 325.245 160.236 295.586C147.21 266.277 147.21 235.986 147.211 214.954L147.212 147.212H151.432C156.185 147.212 163.29 145.998 171.958 144.02C180.139 142.154 189.376 139.69 198.815 137.172L200.199 136.803C210.075 134.169 220.12 131.507 229.159 129.506ZM155.652 155.446L155.652 214.739C155.652 223.501 155.659 233.554 156.538 244.282H173.254C174.993 239.364 179.683 235.841 185.195 235.841C192.188 235.841 197.857 241.51 197.857 248.502C197.857 255.495 192.188 261.164 185.195 261.164C179.683 261.164 174.993 257.64 173.254 252.723H157.409C159.013 265.492 162.081 278.954 167.95 292.158C179.629 318.436 202.608 344.103 248.502 360.739V344.852C243.584 343.114 240.061 338.424 240.061 332.911C240.061 325.919 245.73 320.25 252.723 320.25C259.715 320.25 265.384 325.919 265.384 332.911C265.384 338.424 261.861 343.114 256.943 344.852V360.63C302.942 343.132 325.885 318.898 337.521 293.686C343.737 280.219 346.804 266.329 348.319 252.723H336.411C334.673 257.64 329.983 261.164 324.47 261.164C317.477 261.164 311.809 255.495 311.809 248.502C311.809 241.51 317.477 235.841 324.47 235.841C329.983 235.841 334.673 239.364 336.411 244.282H349.076C349.786 234.085 349.794 224.135 349.794 214.739V155.445C344.651 154.981 338.484 153.779 331.89 152.246C324.08 150.429 315.347 148.066 306.524 145.678L303.85 144.955C294.081 142.315 284.283 139.703 275.362 137.75C268.398 136.225 262.135 135.14 256.943 134.73V152.153C261.861 153.891 265.384 158.581 265.384 164.093C265.384 171.086 259.715 176.755 252.723 176.755C245.73 176.755 240.061 171.086 240.061 164.093C240.061 158.581 243.584 153.891 248.502 152.153V134.758C243.7 135.186 237.738 136.252 230.983 137.748C222.151 139.703 212.28 142.317 202.374 144.959L200.931 145.344C191.546 147.847 182.172 150.348 173.836 152.25C167.112 153.784 160.835 154.984 155.652 155.446ZM252.723 168.314C255.053 168.314 256.943 166.424 256.943 164.093C256.943 161.763 255.053 159.873 252.723 159.873C250.392 159.873 248.502 161.763 248.502 164.093C248.502 166.424 250.392 168.314 252.723 168.314ZM328.691 248.502C328.691 250.833 326.801 252.723 324.47 252.723C322.139 252.723 320.25 250.833 320.25 248.502C320.25 246.171 322.139 244.282 324.47 244.282C326.801 244.282 328.691 246.171 328.691 248.502ZM252.723 337.132C255.053 337.132 256.943 335.242 256.943 332.911C256.943 330.58 255.053 328.691 252.723 328.691C250.392 328.691 248.502 330.58 248.502 332.911C248.502 335.242 250.392 337.132 252.723 337.132ZM189.416 248.502C189.416 250.833 187.526 252.723 185.195 252.723C182.864 252.723 180.975 250.833 180.975 248.502C180.975 246.171 182.864 244.282 185.195 244.282C187.526 244.282 189.416 246.171 189.416 248.502Z" fill="url(#paint6_linear_890_939)"/>
</g>
</g>
<rect x="1.80072" y="1.80072" width="493.399" height="493.399" rx="246.699" stroke="#4A4A4A" stroke-width="3.60145" stroke-dasharray="7.2 7.2"/>
<defs>
<filter id="filter0_d_890_939" x="-66.6261" y="-66.6261" width="630.254" height="630.254" filterUnits="userSpaceOnUse" color-interpolation-filters="sRGB">
<feFlood flood-opacity="0" result="BackgroundImageFix"/>
<feColorMatrix in="SourceAlpha" type="matrix" values="0 0 0 0 0 0 0 0 0 0 0 0 0 0 0 0 0 0 127 0" result="hardAlpha"/>
<feOffset/>
<feGaussianBlur stdDeviation="45.0181"/>
<feComposite in2="hardAlpha" operator="out"/>
<feColorMatrix type="matrix" values="0 0 0 0 0.069255 0 0 0 0 0.275775 0 0 0 0 0.564904 0 0 0 1 0"/>
<feBlend mode="normal" in2="BackgroundImageFix" result="effect1_dropShadow_890_939"/>
<feBlend mode="normal" in="SourceGraphic" in2="effect1_dropShadow_890_939" result="shape"/>
</filter>
<linearGradient id="paint0_linear_890_939" x1="170.566" y1="136.303" x2="389.05" y2="339.042" gradientUnits="userSpaceOnUse">
<stop stop-color="#6FD3FF"/>
<stop offset="1" stop-color="#288AFE"/>
</linearGradient>
<linearGradient id="paint1_linear_890_939" x1="170.566" y1="136.303" x2="389.05" y2="339.042" gradientUnits="userSpaceOnUse">
<stop stop-color="#6FD3FF"/>
<stop offset="1" stop-color="#288AFE"/>
</linearGradient>
<linearGradient id="paint2_linear_890_939" x1="170.566" y1="136.303" x2="389.05" y2="339.042" gradientUnits="userSpaceOnUse">
<stop stop-color="#6FD3FF"/>
<stop offset="1" stop-color="#288AFE"/>
</linearGradient>
<linearGradient id="paint3_linear_890_939" x1="170.566" y1="136.303" x2="389.05" y2="339.042" gradientUnits="userSpaceOnUse">
<stop stop-color="#6FD3FF"/>
<stop offset="1" stop-color="#288AFE"/>
</linearGradient>
<linearGradient id="paint4_linear_890_939" x1="170.566" y1="136.303" x2="389.05" y2="339.042" gradientUnits="userSpaceOnUse">
<stop stop-color="#6FD3FF"/>
<stop offset="1" stop-color="#288AFE"/>
</linearGradient>
<linearGradient id="paint5_linear_890_939" x1="170.566" y1="136.303" x2="389.05" y2="339.042" gradientUnits="userSpaceOnUse">
<stop stop-color="#6FD3FF"/>
<stop offset="1" stop-color="#288AFE"/>
</linearGradient>
<linearGradient id="paint6_linear_890_939" x1="170.566" y1="136.303" x2="389.05" y2="339.042" gradientUnits="userSpaceOnUse">
<stop stop-color="#6FD3FF"/>
<stop offset="1" stop-color="#288AFE"/>
</linearGradient>
<clipPath id="clip0_890_939">
<rect width="497" height="497" rx="248.5" fill="white"/>
</clipPath>
</defs>
</svg>
