<svg width="606" height="605" viewBox="0 0 606 605" fill="none" xmlns="http://www.w3.org/2000/svg">
<g filter="url(#filter0_d_1517_2712)">
<g clip-path="url(#clip0_1517_2712)">
<g filter="url(#filter1_d_1517_2712)">
<rect x="87.0352" y="86.4453" width="431.654" height="431.654" rx="215.827" fill="#04081D"/>
<rect x="88.7618" y="88.1719" width="428.2" height="428.2" rx="214.1" stroke="#9DC6FF" stroke-opacity="0.6" stroke-width="3.45323"/>
<path fill-rule="evenodd" clip-rule="evenodd" d="M408.077 212.555C412.793 210.888 416.171 206.391 416.171 201.105C416.171 194.4 410.735 188.965 404.031 188.965C397.326 188.965 391.89 194.4 391.89 201.105C391.89 206.391 395.269 210.888 399.984 212.555V238.22C399.984 239.293 399.558 240.323 398.799 241.082L376.891 262.99C375.306 262.231 373.531 261.806 371.657 261.806C364.952 261.806 359.516 267.242 359.516 273.947C359.516 280.652 364.952 286.087 371.657 286.087C378.361 286.087 383.797 280.652 383.797 273.947C383.797 272.072 383.372 270.297 382.614 268.713L404.522 246.805C406.798 244.528 408.077 241.44 408.077 238.22V212.555ZM408.077 201.105C408.077 198.87 406.266 197.058 404.031 197.058C401.796 197.058 399.984 198.87 399.984 201.105C399.984 203.34 401.796 205.152 404.031 205.152C406.266 205.152 408.077 203.34 408.077 201.105ZM371.657 269.9C373.892 269.9 375.703 271.712 375.703 273.947C375.703 276.182 373.892 277.993 371.657 277.993C369.422 277.993 367.61 276.182 367.61 273.947C367.61 271.712 369.422 269.9 371.657 269.9Z" fill="url(#paint0_linear_1517_2712)"/>
<path fill-rule="evenodd" clip-rule="evenodd" d="M383.797 326.554C383.797 331.84 380.419 336.337 375.703 338.004V369.392L398.796 392.486C400.381 391.727 402.156 391.302 404.031 391.302C410.735 391.302 416.171 396.738 416.171 403.443C416.171 410.148 410.735 415.583 404.031 415.583C397.326 415.583 391.89 410.148 391.89 403.443C391.89 401.568 392.315 399.793 393.074 398.209L368.795 373.93C368.036 373.171 367.61 372.142 367.61 371.069V338.004C362.895 336.337 359.516 331.84 359.516 326.554C359.516 319.85 364.952 314.414 371.657 314.414C378.361 314.414 383.797 319.85 383.797 326.554ZM375.703 326.554C375.703 324.319 373.892 322.508 371.657 322.508C369.422 322.508 367.61 324.319 367.61 326.554C367.61 328.789 369.422 330.601 371.657 330.601C373.892 330.601 375.703 328.789 375.703 326.554ZM404.031 399.396C406.266 399.396 408.077 401.208 408.077 403.443C408.077 405.678 406.266 407.489 404.031 407.489C401.796 407.489 399.984 405.678 399.984 403.443C399.984 401.208 401.796 399.396 404.031 399.396Z" fill="url(#paint1_linear_1517_2712)"/>
<path fill-rule="evenodd" clip-rule="evenodd" d="M238.114 333.957C242.829 332.291 246.207 327.794 246.207 322.508C246.207 315.803 240.772 310.367 234.067 310.367C227.362 310.367 221.927 315.803 221.927 322.508C221.927 327.794 225.305 332.291 230.02 333.957V369.392L206.927 392.486C205.342 391.727 203.567 391.302 201.693 391.302C194.988 391.302 189.553 396.738 189.553 403.443C189.553 410.148 194.988 415.583 201.693 415.583C208.398 415.583 213.833 410.148 213.833 403.443C213.833 401.568 213.409 399.793 212.65 398.209L236.928 373.93C237.687 373.171 238.114 372.142 238.114 371.069V333.957ZM234.067 318.461C231.832 318.461 230.02 320.273 230.02 322.508C230.02 324.743 231.832 326.554 234.067 326.554C236.302 326.554 238.114 324.743 238.114 322.508C238.114 320.273 236.302 318.461 234.067 318.461ZM197.646 403.443C197.646 401.208 199.458 399.396 201.693 399.396C203.928 399.396 205.74 401.208 205.74 403.443C205.74 405.678 203.928 407.489 201.693 407.489C199.458 407.489 197.646 405.678 197.646 403.443Z" fill="url(#paint2_linear_1517_2712)"/>
<path fill-rule="evenodd" clip-rule="evenodd" d="M306.909 378.471V391.993C311.624 393.66 315.002 398.157 315.002 403.443C315.002 410.148 309.567 415.583 302.862 415.583C296.157 415.583 290.722 410.148 290.722 403.443C290.722 398.157 294.1 393.66 298.815 391.993V378.471C294.1 376.805 290.722 372.308 290.722 367.022C290.722 360.317 296.157 354.882 302.862 354.882C309.567 354.882 315.002 360.317 315.002 367.022C315.002 372.308 311.624 376.805 306.909 378.471ZM302.862 371.069C305.097 371.069 306.909 369.257 306.909 367.022C306.909 364.787 305.097 362.975 302.862 362.975C300.627 362.975 298.815 364.787 298.815 367.022C298.815 369.257 300.627 371.069 302.862 371.069ZM302.862 399.396C305.097 399.396 306.909 401.208 306.909 403.443C306.909 405.678 305.097 407.489 302.862 407.489C300.627 407.489 298.815 405.678 298.815 403.443C298.815 401.208 300.627 399.396 302.862 399.396Z" fill="url(#paint3_linear_1517_2712)"/>
<path fill-rule="evenodd" clip-rule="evenodd" d="M232.976 206.144L245.216 218.384C246.751 217.683 248.457 217.292 250.254 217.292C256.959 217.292 262.394 222.727 262.394 229.432C262.394 236.137 256.959 241.573 250.254 241.573C243.549 241.573 238.114 236.137 238.114 229.432C238.114 227.482 238.574 225.638 239.391 224.005L227.354 211.968C222.808 214.24 217.134 213.481 213.342 209.69C208.601 204.948 208.601 197.262 213.342 192.521C218.083 187.78 225.77 187.78 230.511 192.521C234.195 196.204 235.016 201.667 232.976 206.144ZM224.788 198.244C226.369 199.824 226.369 202.386 224.788 203.967C223.208 205.547 220.646 205.547 219.065 203.967C217.485 202.386 217.485 199.824 219.065 198.244C220.646 196.663 223.208 196.663 224.788 198.244ZM250.254 225.386C248.019 225.386 246.207 227.197 246.207 229.432C246.207 231.667 248.019 233.479 250.254 233.479C252.489 233.479 254.301 231.667 254.301 229.432C254.301 227.197 252.489 225.386 250.254 225.386Z" fill="url(#paint4_linear_1517_2712)"/>
<path d="M322.138 296.794C323.582 295.088 323.369 292.535 321.663 291.091C319.957 289.648 317.403 289.86 315.96 291.566L296.543 314.513L287.513 305.483C285.933 303.902 283.37 303.902 281.79 305.483C280.21 307.063 280.21 309.625 281.79 311.206L293.93 323.346C294.73 324.146 295.829 324.575 296.96 324.528C298.091 324.481 299.15 323.962 299.881 323.098L322.138 296.794Z" fill="url(#paint5_linear_1517_2712)"/>
<path fill-rule="evenodd" clip-rule="evenodd" d="M262.394 306.321C262.394 283.971 280.512 265.853 302.862 265.853C325.211 265.853 343.329 283.971 343.329 306.321C343.329 328.67 325.211 346.788 302.862 346.788C280.512 346.788 262.394 328.67 262.394 306.321ZM302.862 273.947C284.982 273.947 270.488 288.441 270.488 306.321C270.488 324.2 284.982 338.695 302.862 338.695C320.741 338.695 335.236 324.2 335.236 306.321C335.236 288.441 320.741 273.947 302.862 273.947Z" fill="url(#paint6_linear_1517_2712)"/>
<path d="M269.751 223.429C273.791 222.075 278.119 221.339 282.628 221.339C297.123 221.339 309.842 228.957 316.994 240.427C318.033 242.094 320.118 242.774 321.94 242.04C329.169 239.13 337.068 237.526 345.353 237.526C357.981 237.526 369.726 241.254 379.563 247.667C381.435 248.888 383.943 248.36 385.163 246.488C386.384 244.616 385.856 242.108 383.984 240.888C372.872 233.643 359.598 229.432 345.353 229.432C337.176 229.432 329.316 230.82 321.999 233.374C313.183 221.187 298.834 213.245 282.628 213.245C277.233 213.245 272.036 214.127 267.178 215.756C265.059 216.467 263.917 218.761 264.628 220.88C265.338 222.999 267.632 224.14 269.751 223.429Z" fill="url(#paint7_linear_1517_2712)"/>
<path d="M244.251 248.93C244.962 246.811 243.82 244.517 241.701 243.806C239.582 243.095 237.288 244.237 236.578 246.356C234.948 251.215 234.067 256.412 234.067 261.806C234.067 266.017 234.604 270.108 235.614 274.01C209.956 275.311 189.553 296.526 189.553 322.508C189.553 342.256 201.34 359.242 218.246 366.831C220.285 367.746 222.68 366.835 223.595 364.796C224.51 362.757 223.6 360.362 221.561 359.447C207.456 353.116 197.646 338.953 197.646 322.508C197.646 300.158 215.764 282.04 238.114 282.04C239.056 282.04 239.989 282.072 240.914 282.135C242.298 282.23 243.635 281.608 244.454 280.489C245.274 279.369 245.463 277.908 244.955 276.616C243.153 272.035 242.161 267.041 242.161 261.806C242.161 257.298 242.896 252.969 244.251 248.93Z" fill="url(#paint8_linear_1517_2712)"/>
<path d="M405.438 262.751C404.253 260.856 401.757 260.281 399.862 261.466C397.967 262.651 397.391 265.148 398.576 267.042C404.597 276.67 408.077 288.048 408.077 300.251C408.077 321.443 397.571 340.183 381.464 351.544C379.638 352.832 379.202 355.357 380.49 357.184C381.778 359.01 384.303 359.446 386.129 358.158C404.294 345.345 416.171 324.185 416.171 300.251C416.171 286.487 412.24 273.628 405.438 262.751Z" fill="url(#paint9_linear_1517_2712)"/>
<path d="M358.224 369.901C360.422 369.497 361.877 367.388 361.473 365.19C361.069 362.992 358.96 361.537 356.762 361.941C353.065 362.62 349.252 362.975 345.353 362.975C344.716 362.975 344.082 362.966 343.45 362.947C343.244 362.941 343.039 362.95 342.837 362.975H324.107C321.872 362.975 320.061 364.787 320.061 367.022C320.061 369.257 321.872 371.069 324.107 371.069H343.329C343.461 371.069 343.591 371.062 343.719 371.05C344.262 371.063 344.807 371.069 345.353 371.069C349.745 371.069 354.047 370.668 358.224 369.901Z" fill="url(#paint10_linear_1517_2712)"/>
<path d="M250.254 362.975C248.019 362.975 246.207 364.787 246.207 367.022C246.207 369.257 248.019 371.069 250.254 371.069H278.581C280.816 371.069 282.628 369.257 282.628 367.022C282.628 364.787 280.816 362.975 278.581 362.975H250.254Z" fill="url(#paint11_linear_1517_2712)"/>
</g>
</g>
</g>
<defs>
<filter id="filter0_d_1517_2712" x="-24.3307" y="-22.3307" width="654.386" height="649.206" filterUnits="userSpaceOnUse" color-interpolation-filters="sRGB">
<feFlood flood-opacity="0" result="BackgroundImageFix"/>
<feColorMatrix in="SourceAlpha" type="matrix" values="0 0 0 0 0 0 0 0 0 0 0 0 0 0 0 0 0 0 127 0" result="hardAlpha"/>
<feOffset/>
<feGaussianBlur stdDeviation="43.1654"/>
<feComposite in2="hardAlpha" operator="out"/>
<feColorMatrix type="matrix" values="0 0 0 0 0 0 0 0 0 0 0 0 0 0 0 0 0 0 1 0"/>
<feBlend mode="normal" in2="BackgroundImageFix" result="effect1_dropShadow_1517_2712"/>
<feBlend mode="normal" in="SourceGraphic" in2="effect1_dropShadow_1517_2712" result="shape"/>
</filter>
<filter id="filter1_d_1517_2712" x="0.704437" y="0.114594" width="604.316" height="604.316" filterUnits="userSpaceOnUse" color-interpolation-filters="sRGB">
<feFlood flood-opacity="0" result="BackgroundImageFix"/>
<feColorMatrix in="SourceAlpha" type="matrix" values="0 0 0 0 0 0 0 0 0 0 0 0 0 0 0 0 0 0 127 0" result="hardAlpha"/>
<feOffset/>
<feGaussianBlur stdDeviation="43.1654"/>
<feComposite in2="hardAlpha" operator="out"/>
<feColorMatrix type="matrix" values="0 0 0 0 0.121569 0 0 0 0 0.215686 0 0 0 0 0.34902 0 0 0 1 0"/>
<feBlend mode="normal" in2="BackgroundImageFix" result="effect1_dropShadow_1517_2712"/>
<feBlend mode="normal" in="SourceGraphic" in2="effect1_dropShadow_1517_2712" result="shape"/>
</filter>
<linearGradient id="paint0_linear_1517_2712" x1="214.634" y1="198.392" x2="416.705" y2="416.117" gradientUnits="userSpaceOnUse">
<stop stop-color="#6FD3FF"/>
<stop offset="1" stop-color="#288AFE"/>
</linearGradient>
<linearGradient id="paint1_linear_1517_2712" x1="214.634" y1="198.392" x2="416.705" y2="416.117" gradientUnits="userSpaceOnUse">
<stop stop-color="#6FD3FF"/>
<stop offset="1" stop-color="#288AFE"/>
</linearGradient>
<linearGradient id="paint2_linear_1517_2712" x1="214.634" y1="198.392" x2="416.705" y2="416.117" gradientUnits="userSpaceOnUse">
<stop stop-color="#6FD3FF"/>
<stop offset="1" stop-color="#288AFE"/>
</linearGradient>
<linearGradient id="paint3_linear_1517_2712" x1="214.634" y1="198.392" x2="416.705" y2="416.117" gradientUnits="userSpaceOnUse">
<stop stop-color="#6FD3FF"/>
<stop offset="1" stop-color="#288AFE"/>
</linearGradient>
<linearGradient id="paint4_linear_1517_2712" x1="214.634" y1="198.392" x2="416.705" y2="416.117" gradientUnits="userSpaceOnUse">
<stop stop-color="#6FD3FF"/>
<stop offset="1" stop-color="#288AFE"/>
</linearGradient>
<linearGradient id="paint5_linear_1517_2712" x1="214.634" y1="198.392" x2="416.705" y2="416.117" gradientUnits="userSpaceOnUse">
<stop stop-color="#6FD3FF"/>
<stop offset="1" stop-color="#288AFE"/>
</linearGradient>
<linearGradient id="paint6_linear_1517_2712" x1="214.634" y1="198.392" x2="416.705" y2="416.117" gradientUnits="userSpaceOnUse">
<stop stop-color="#6FD3FF"/>
<stop offset="1" stop-color="#288AFE"/>
</linearGradient>
<linearGradient id="paint7_linear_1517_2712" x1="214.634" y1="198.392" x2="416.705" y2="416.117" gradientUnits="userSpaceOnUse">
<stop stop-color="#6FD3FF"/>
<stop offset="1" stop-color="#288AFE"/>
</linearGradient>
<linearGradient id="paint8_linear_1517_2712" x1="214.634" y1="198.392" x2="416.705" y2="416.117" gradientUnits="userSpaceOnUse">
<stop stop-color="#6FD3FF"/>
<stop offset="1" stop-color="#288AFE"/>
</linearGradient>
<linearGradient id="paint9_linear_1517_2712" x1="214.634" y1="198.392" x2="416.705" y2="416.117" gradientUnits="userSpaceOnUse">
<stop stop-color="#6FD3FF"/>
<stop offset="1" stop-color="#288AFE"/>
</linearGradient>
<linearGradient id="paint10_linear_1517_2712" x1="214.634" y1="198.392" x2="416.705" y2="416.117" gradientUnits="userSpaceOnUse">
<stop stop-color="#6FD3FF"/>
<stop offset="1" stop-color="#288AFE"/>
</linearGradient>
<linearGradient id="paint11_linear_1517_2712" x1="214.634" y1="198.392" x2="416.705" y2="416.117" gradientUnits="userSpaceOnUse">
<stop stop-color="#6FD3FF"/>
<stop offset="1" stop-color="#288AFE"/>
</linearGradient>
<clipPath id="clip0_1517_2712">
<rect x="62" y="64" width="481.725" height="476.546" rx="238.273" fill="white"/>
</clipPath>
</defs>
</svg>
