<svg width="477" height="477" viewBox="0 0 477 477" fill="none" xmlns="http://www.w3.org/2000/svg">
<g clip-path="url(#clip0_1517_2708)">
<g filter="url(#filter0_d_1517_2708)">
<rect x="22.4453" y="22.4453" width="431.654" height="431.654" rx="215.827" fill="#04081D"/>
<rect x="24.1719" y="24.1719" width="428.2" height="428.2" rx="214.1" stroke="#9DC6FF" stroke-opacity="0.6" stroke-width="3.45323"/>
<path d="M153.29 149.245C151.055 149.245 149.243 151.057 149.243 153.292C149.243 155.527 151.055 157.339 153.29 157.339H185.664C187.899 157.339 189.711 155.527 189.711 153.292C189.711 151.057 187.899 149.245 185.664 149.245H153.29Z" fill="url(#paint0_linear_1517_2708)"/>
<path d="M149.243 177.573C149.243 175.338 151.055 173.526 153.29 173.526H185.664C187.899 173.526 189.711 175.338 189.711 177.573C189.711 179.808 187.899 181.619 185.664 181.619H153.29C151.055 181.619 149.243 179.808 149.243 177.573Z" fill="url(#paint1_linear_1517_2708)"/>
<path d="M153.29 185.666C151.055 185.666 149.243 187.478 149.243 189.713C149.243 191.948 151.055 193.76 153.29 193.76H169.477C171.712 193.76 173.524 191.948 173.524 189.713C173.524 187.478 171.712 185.666 169.477 185.666H153.29Z" fill="url(#paint2_linear_1517_2708)"/>
<path d="M177.571 189.713C177.571 187.478 179.382 185.666 181.617 185.666H185.664C187.899 185.666 189.711 187.478 189.711 189.713C189.711 191.948 187.899 193.76 185.664 193.76H181.617C179.382 193.76 177.571 191.948 177.571 189.713Z" fill="url(#paint3_linear_1517_2708)"/>
<path d="M197.804 185.666C195.569 185.666 193.758 187.478 193.758 189.713C193.758 191.948 195.569 193.76 197.804 193.76H205.898C208.133 193.76 209.945 191.948 209.945 189.713C209.945 187.478 208.133 185.666 205.898 185.666H197.804Z" fill="url(#paint4_linear_1517_2708)"/>
<path d="M193.758 177.573C193.758 175.338 195.569 173.526 197.804 173.526H213.991C216.226 173.526 218.038 175.338 218.038 177.573C218.038 179.808 216.226 181.619 213.991 181.619H197.804C195.569 181.619 193.758 179.808 193.758 177.573Z" fill="url(#paint5_linear_1517_2708)"/>
<path d="M226.132 173.526C223.897 173.526 222.085 175.338 222.085 177.573C222.085 179.808 223.897 181.619 226.132 181.619H234.225C236.46 181.619 238.272 179.808 238.272 177.573C238.272 175.338 236.46 173.526 234.225 173.526H226.132Z" fill="url(#paint6_linear_1517_2708)"/>
<path d="M173.524 165.432C173.524 163.197 175.336 161.386 177.571 161.386H209.945C212.18 161.386 213.991 163.197 213.991 165.432C213.991 167.667 212.18 169.479 209.945 169.479H177.571C175.336 169.479 173.524 167.667 173.524 165.432Z" fill="url(#paint7_linear_1517_2708)"/>
<path d="M218.038 165.432C218.038 163.197 219.85 161.386 222.085 161.386H238.272C240.507 161.386 242.319 163.197 242.319 165.432C242.319 167.667 240.507 169.479 238.272 169.479H222.085C219.85 169.479 218.038 167.667 218.038 165.432Z" fill="url(#paint8_linear_1517_2708)"/>
<path d="M197.804 149.245C195.569 149.245 193.758 151.057 193.758 153.292C193.758 155.527 195.569 157.339 197.804 157.339H213.991C216.226 157.339 218.038 155.527 218.038 153.292C218.038 151.057 216.226 149.245 213.991 149.245H197.804Z" fill="url(#paint9_linear_1517_2708)"/>
<path d="M149.243 165.432C149.243 163.197 151.055 161.386 153.29 161.386H165.43C167.665 161.386 169.477 163.197 169.477 165.432C169.477 167.667 167.665 169.479 165.43 169.479H153.29C151.055 169.479 149.243 167.667 149.243 165.432Z" fill="url(#paint10_linear_1517_2708)"/>
<path fill-rule="evenodd" clip-rule="evenodd" d="M245.083 248.412C247.473 250.503 250.865 251.003 253.757 249.691C256.648 248.379 258.506 245.496 258.506 242.321V222.087C271.915 222.087 282.786 211.216 282.786 197.806V149.245C282.786 135.836 271.915 124.965 258.506 124.965H149.243C135.834 124.965 124.963 135.836 124.963 149.245V197.806C124.963 211.216 135.834 222.087 149.243 222.087H214.997L245.083 248.412ZM254.459 213.993C252.224 213.993 250.412 215.805 250.412 218.04V242.321L219.182 214.995C218.445 214.349 217.498 213.993 216.518 213.993H149.243C140.304 213.993 133.056 206.746 133.056 197.806V149.245C133.056 140.306 140.304 133.058 149.243 133.058H258.506C267.446 133.058 274.693 140.306 274.693 149.245V197.806C274.693 206.746 267.446 213.993 258.506 213.993H254.459Z" fill="url(#paint11_linear_1517_2708)"/>
<path d="M133.056 266.601C133.056 259.896 138.492 254.461 145.197 254.461H184.652C186.887 254.461 188.699 252.649 188.699 250.414C188.699 248.179 186.887 246.367 184.652 246.367H145.197C134.022 246.367 124.963 255.426 124.963 266.601V315.162C124.963 326.337 134.022 335.396 145.197 335.396H212.471L236.989 356.849C242.222 361.428 250.412 357.712 250.412 350.758V335.396H254.459C265.634 335.396 274.693 326.337 274.693 315.162V290.882C274.693 288.647 272.881 286.835 270.646 286.835C268.411 286.835 266.599 288.647 266.599 290.882V315.162C266.599 321.867 261.164 327.302 254.459 327.302H246.365C244.131 327.302 242.319 329.114 242.319 331.349V350.758L217.801 329.305C216.325 328.014 214.431 327.302 212.471 327.302H145.197C138.492 327.302 133.056 321.867 133.056 315.162V266.601Z" fill="url(#paint12_linear_1517_2708)"/>
<path d="M331.347 197.806C338.052 197.806 343.488 203.242 343.488 209.947V258.508C343.488 265.213 338.052 270.648 331.347 270.648H264.073C262.113 270.648 260.219 271.359 258.743 272.65L234.225 294.104V274.695C234.225 272.46 232.413 270.648 230.178 270.648H222.085C215.38 270.648 209.945 265.213 209.945 258.508V234.227C209.945 231.992 208.133 230.18 205.898 230.18C203.663 230.18 201.851 231.992 201.851 234.227V258.508C201.851 269.682 210.91 278.741 222.085 278.741H226.132V294.104C226.132 301.057 234.322 304.774 239.555 300.195L264.073 278.741H331.347C342.522 278.741 351.581 269.682 351.581 258.508V209.947C351.581 198.772 342.522 189.713 331.347 189.713H299.985C297.75 189.713 295.938 191.525 295.938 193.76C295.938 195.995 297.75 197.806 299.985 197.806H331.347Z" fill="url(#paint13_linear_1517_2708)"/>
<path d="M145.197 270.648C145.197 268.413 147.008 266.601 149.243 266.601H173.524C175.759 266.601 177.571 268.413 177.571 270.648C177.571 272.883 175.759 274.695 173.524 274.695H149.243C147.008 274.695 145.197 272.883 145.197 270.648Z" fill="url(#paint14_linear_1517_2708)"/>
<path d="M327.301 209.947C329.535 209.947 331.347 211.758 331.347 213.993C331.347 216.228 329.535 218.04 327.301 218.04H303.02C300.785 218.04 298.973 216.228 298.973 213.993C298.973 211.758 300.785 209.947 303.02 209.947H327.301Z" fill="url(#paint15_linear_1517_2708)"/>
<path d="M149.243 290.882C147.008 290.882 145.197 292.693 145.197 294.928C145.197 297.163 147.008 298.975 149.243 298.975H181.617C183.852 298.975 185.664 297.163 185.664 294.928C185.664 292.693 183.852 290.882 181.617 290.882H149.243Z" fill="url(#paint16_linear_1517_2708)"/>
<path d="M294.926 238.274C294.926 236.039 293.115 234.227 290.88 234.227H286.833C284.598 234.227 282.786 236.039 282.786 238.274C282.786 240.509 284.598 242.321 286.833 242.321H290.88C293.115 242.321 294.926 240.509 294.926 238.274Z" fill="url(#paint17_linear_1517_2708)"/>
<path d="M327.301 246.367C329.535 246.367 331.347 248.179 331.347 250.414C331.347 252.649 329.535 254.461 327.301 254.461H311.114C308.879 254.461 307.067 252.649 307.067 250.414C307.067 248.179 308.879 246.367 311.114 246.367H327.301Z" fill="url(#paint18_linear_1517_2708)"/>
<path d="M331.347 238.274C331.347 236.039 329.535 234.227 327.301 234.227H303.02C300.785 234.227 298.973 236.039 298.973 238.274C298.973 240.509 300.785 242.321 303.02 242.321H327.301C329.535 242.321 331.347 240.509 331.347 238.274Z" fill="url(#paint19_linear_1517_2708)"/>
<path d="M173.524 278.741C171.289 278.741 169.477 280.553 169.477 282.788C169.477 285.023 171.289 286.835 173.524 286.835H181.617C183.852 286.835 185.664 285.023 185.664 282.788C185.664 280.553 183.852 278.741 181.617 278.741H173.524Z" fill="url(#paint20_linear_1517_2708)"/>
<path d="M189.711 294.928C189.711 292.693 191.523 290.882 193.758 290.882H197.804C200.039 290.882 201.851 292.693 201.851 294.928C201.851 297.163 200.039 298.975 197.804 298.975H193.758C191.523 298.975 189.711 297.163 189.711 294.928Z" fill="url(#paint21_linear_1517_2708)"/>
<path d="M303.02 222.087C305.255 222.087 307.067 223.899 307.067 226.134C307.067 228.369 305.255 230.18 303.02 230.18H290.88C288.645 230.18 286.833 228.369 286.833 226.134C286.833 223.899 288.645 222.087 290.88 222.087H303.02Z" fill="url(#paint22_linear_1517_2708)"/>
<path d="M149.243 278.741C147.008 278.741 145.197 280.553 145.197 282.788C145.197 285.023 147.008 286.835 149.243 286.835H161.384C163.619 286.835 165.43 285.023 165.43 282.788C165.43 280.553 163.619 278.741 161.384 278.741H149.243Z" fill="url(#paint23_linear_1517_2708)"/>
<path d="M145.197 307.069C145.197 304.834 147.008 303.022 149.243 303.022H161.384C163.619 303.022 165.43 304.834 165.43 307.069C165.43 309.304 163.619 311.115 161.384 311.115H149.243C147.008 311.115 145.197 309.304 145.197 307.069Z" fill="url(#paint24_linear_1517_2708)"/>
<path d="M327.301 222.087C329.535 222.087 331.347 223.899 331.347 226.134C331.347 228.369 329.535 230.18 327.301 230.18H315.16C312.925 230.18 311.114 228.369 311.114 226.134C311.114 223.899 312.925 222.087 315.16 222.087H327.301Z" fill="url(#paint25_linear_1517_2708)"/>
</g>
</g>
<defs>
<filter id="filter0_d_1517_2708" x="-63.8854" y="-63.8854" width="604.316" height="604.316" filterUnits="userSpaceOnUse" color-interpolation-filters="sRGB">
<feFlood flood-opacity="0" result="BackgroundImageFix"/>
<feColorMatrix in="SourceAlpha" type="matrix" values="0 0 0 0 0 0 0 0 0 0 0 0 0 0 0 0 0 0 127 0" result="hardAlpha"/>
<feOffset/>
<feGaussianBlur stdDeviation="43.1654"/>
<feComposite in2="hardAlpha" operator="out"/>
<feColorMatrix type="matrix" values="0 0 0 0 0.121569 0 0 0 0 0.215686 0 0 0 0 0.34902 0 0 0 1 0"/>
<feBlend mode="normal" in2="BackgroundImageFix" result="effect1_dropShadow_1517_2708"/>
<feBlend mode="normal" in="SourceGraphic" in2="effect1_dropShadow_1517_2708" result="shape"/>
</filter>
<linearGradient id="paint0_linear_1517_2708" x1="150.044" y1="134.695" x2="358.998" y2="352.825" gradientUnits="userSpaceOnUse">
<stop stop-color="#6FD3FF"/>
<stop offset="1" stop-color="#288AFE"/>
</linearGradient>
<linearGradient id="paint1_linear_1517_2708" x1="150.044" y1="134.695" x2="358.998" y2="352.825" gradientUnits="userSpaceOnUse">
<stop stop-color="#6FD3FF"/>
<stop offset="1" stop-color="#288AFE"/>
</linearGradient>
<linearGradient id="paint2_linear_1517_2708" x1="150.044" y1="134.695" x2="358.998" y2="352.825" gradientUnits="userSpaceOnUse">
<stop stop-color="#6FD3FF"/>
<stop offset="1" stop-color="#288AFE"/>
</linearGradient>
<linearGradient id="paint3_linear_1517_2708" x1="150.044" y1="134.695" x2="358.998" y2="352.825" gradientUnits="userSpaceOnUse">
<stop stop-color="#6FD3FF"/>
<stop offset="1" stop-color="#288AFE"/>
</linearGradient>
<linearGradient id="paint4_linear_1517_2708" x1="150.044" y1="134.695" x2="358.998" y2="352.825" gradientUnits="userSpaceOnUse">
<stop stop-color="#6FD3FF"/>
<stop offset="1" stop-color="#288AFE"/>
</linearGradient>
<linearGradient id="paint5_linear_1517_2708" x1="150.044" y1="134.695" x2="358.998" y2="352.825" gradientUnits="userSpaceOnUse">
<stop stop-color="#6FD3FF"/>
<stop offset="1" stop-color="#288AFE"/>
</linearGradient>
<linearGradient id="paint6_linear_1517_2708" x1="150.044" y1="134.695" x2="358.998" y2="352.825" gradientUnits="userSpaceOnUse">
<stop stop-color="#6FD3FF"/>
<stop offset="1" stop-color="#288AFE"/>
</linearGradient>
<linearGradient id="paint7_linear_1517_2708" x1="150.044" y1="134.695" x2="358.998" y2="352.825" gradientUnits="userSpaceOnUse">
<stop stop-color="#6FD3FF"/>
<stop offset="1" stop-color="#288AFE"/>
</linearGradient>
<linearGradient id="paint8_linear_1517_2708" x1="150.044" y1="134.695" x2="358.998" y2="352.825" gradientUnits="userSpaceOnUse">
<stop stop-color="#6FD3FF"/>
<stop offset="1" stop-color="#288AFE"/>
</linearGradient>
<linearGradient id="paint9_linear_1517_2708" x1="150.044" y1="134.695" x2="358.998" y2="352.825" gradientUnits="userSpaceOnUse">
<stop stop-color="#6FD3FF"/>
<stop offset="1" stop-color="#288AFE"/>
</linearGradient>
<linearGradient id="paint10_linear_1517_2708" x1="150.044" y1="134.695" x2="358.998" y2="352.825" gradientUnits="userSpaceOnUse">
<stop stop-color="#6FD3FF"/>
<stop offset="1" stop-color="#288AFE"/>
</linearGradient>
<linearGradient id="paint11_linear_1517_2708" x1="150.044" y1="134.695" x2="358.998" y2="352.825" gradientUnits="userSpaceOnUse">
<stop stop-color="#6FD3FF"/>
<stop offset="1" stop-color="#288AFE"/>
</linearGradient>
<linearGradient id="paint12_linear_1517_2708" x1="150.044" y1="134.695" x2="358.998" y2="352.825" gradientUnits="userSpaceOnUse">
<stop stop-color="#6FD3FF"/>
<stop offset="1" stop-color="#288AFE"/>
</linearGradient>
<linearGradient id="paint13_linear_1517_2708" x1="150.044" y1="134.695" x2="358.998" y2="352.825" gradientUnits="userSpaceOnUse">
<stop stop-color="#6FD3FF"/>
<stop offset="1" stop-color="#288AFE"/>
</linearGradient>
<linearGradient id="paint14_linear_1517_2708" x1="150.044" y1="134.695" x2="358.998" y2="352.825" gradientUnits="userSpaceOnUse">
<stop stop-color="#6FD3FF"/>
<stop offset="1" stop-color="#288AFE"/>
</linearGradient>
<linearGradient id="paint15_linear_1517_2708" x1="150.044" y1="134.695" x2="358.998" y2="352.825" gradientUnits="userSpaceOnUse">
<stop stop-color="#6FD3FF"/>
<stop offset="1" stop-color="#288AFE"/>
</linearGradient>
<linearGradient id="paint16_linear_1517_2708" x1="150.044" y1="134.695" x2="358.998" y2="352.825" gradientUnits="userSpaceOnUse">
<stop stop-color="#6FD3FF"/>
<stop offset="1" stop-color="#288AFE"/>
</linearGradient>
<linearGradient id="paint17_linear_1517_2708" x1="150.044" y1="134.695" x2="358.998" y2="352.825" gradientUnits="userSpaceOnUse">
<stop stop-color="#6FD3FF"/>
<stop offset="1" stop-color="#288AFE"/>
</linearGradient>
<linearGradient id="paint18_linear_1517_2708" x1="150.044" y1="134.695" x2="358.998" y2="352.825" gradientUnits="userSpaceOnUse">
<stop stop-color="#6FD3FF"/>
<stop offset="1" stop-color="#288AFE"/>
</linearGradient>
<linearGradient id="paint19_linear_1517_2708" x1="150.044" y1="134.695" x2="358.998" y2="352.825" gradientUnits="userSpaceOnUse">
<stop stop-color="#6FD3FF"/>
<stop offset="1" stop-color="#288AFE"/>
</linearGradient>
<linearGradient id="paint20_linear_1517_2708" x1="150.044" y1="134.695" x2="358.998" y2="352.825" gradientUnits="userSpaceOnUse">
<stop stop-color="#6FD3FF"/>
<stop offset="1" stop-color="#288AFE"/>
</linearGradient>
<linearGradient id="paint21_linear_1517_2708" x1="150.044" y1="134.695" x2="358.998" y2="352.825" gradientUnits="userSpaceOnUse">
<stop stop-color="#6FD3FF"/>
<stop offset="1" stop-color="#288AFE"/>
</linearGradient>
<linearGradient id="paint22_linear_1517_2708" x1="150.044" y1="134.695" x2="358.998" y2="352.825" gradientUnits="userSpaceOnUse">
<stop stop-color="#6FD3FF"/>
<stop offset="1" stop-color="#288AFE"/>
</linearGradient>
<linearGradient id="paint23_linear_1517_2708" x1="150.044" y1="134.695" x2="358.998" y2="352.825" gradientUnits="userSpaceOnUse">
<stop stop-color="#6FD3FF"/>
<stop offset="1" stop-color="#288AFE"/>
</linearGradient>
<linearGradient id="paint24_linear_1517_2708" x1="150.044" y1="134.695" x2="358.998" y2="352.825" gradientUnits="userSpaceOnUse">
<stop stop-color="#6FD3FF"/>
<stop offset="1" stop-color="#288AFE"/>
</linearGradient>
<linearGradient id="paint25_linear_1517_2708" x1="150.044" y1="134.695" x2="358.998" y2="352.825" gradientUnits="userSpaceOnUse">
<stop stop-color="#6FD3FF"/>
<stop offset="1" stop-color="#288AFE"/>
</linearGradient>
<clipPath id="clip0_1517_2708">
<rect width="476.546" height="476.546" rx="238.273" fill="white"/>
</clipPath>
</defs>
</svg>
