<svg width="497" height="497" viewBox="0 0 497 497" fill="none" xmlns="http://www.w3.org/2000/svg">
<g clip-path="url(#clip0_890_931)">
<g filter="url(#filter0_d_890_931)">
<rect x="23.4102" y="23.4102" width="450.181" height="450.181" rx="225.091" fill="#0A0C35"/>
<rect x="25.2109" y="25.2109" width="446.58" height="446.58" rx="223.29" stroke="#0075FF" stroke-width="3.60145"/>
<path d="M159.871 155.651C157.54 155.651 155.651 157.54 155.651 159.871C155.651 162.202 157.54 164.092 159.871 164.092H193.635C195.966 164.092 197.855 162.202 197.855 159.871C197.855 157.54 195.966 155.651 193.635 155.651H159.871Z" fill="url(#paint0_linear_890_931)"/>
<path d="M155.651 185.194C155.651 182.863 157.54 180.974 159.871 180.974H193.635C195.966 180.974 197.855 182.863 197.855 185.194C197.855 187.525 195.966 189.414 193.635 189.414H159.871C157.54 189.414 155.651 187.525 155.651 185.194Z" fill="url(#paint1_linear_890_931)"/>
<path d="M159.871 193.635C157.54 193.635 155.651 195.524 155.651 197.855C155.651 200.186 157.54 202.076 159.871 202.076H176.753C179.084 202.076 180.974 200.186 180.974 197.855C180.974 195.524 179.084 193.635 176.753 193.635H159.871Z" fill="url(#paint2_linear_890_931)"/>
<path d="M185.194 197.855C185.194 195.524 187.084 193.635 189.414 193.635H193.635C195.966 193.635 197.855 195.524 197.855 197.855C197.855 200.186 195.966 202.076 193.635 202.076H189.414C187.084 202.076 185.194 200.186 185.194 197.855Z" fill="url(#paint3_linear_890_931)"/>
<path d="M206.296 193.635C203.965 193.635 202.076 195.524 202.076 197.855C202.076 200.186 203.965 202.076 206.296 202.076H214.737C217.068 202.076 218.958 200.186 218.958 197.855C218.958 195.524 217.068 193.635 214.737 193.635H206.296Z" fill="url(#paint4_linear_890_931)"/>
<path d="M202.076 185.194C202.076 182.863 203.965 180.974 206.296 180.974H223.178C225.509 180.974 227.398 182.863 227.398 185.194C227.398 187.525 225.509 189.414 223.178 189.414H206.296C203.965 189.414 202.076 187.525 202.076 185.194Z" fill="url(#paint5_linear_890_931)"/>
<path d="M235.839 180.974C233.508 180.974 231.619 182.863 231.619 185.194C231.619 187.525 233.508 189.414 235.839 189.414H244.28C246.611 189.414 248.501 187.525 248.501 185.194C248.501 182.863 246.611 180.974 244.28 180.974H235.839Z" fill="url(#paint6_linear_890_931)"/>
<path d="M180.974 172.533C180.974 170.202 182.863 168.312 185.194 168.312H218.958C221.288 168.312 223.178 170.202 223.178 172.533C223.178 174.863 221.288 176.753 218.958 176.753H185.194C182.863 176.753 180.974 174.863 180.974 172.533Z" fill="url(#paint7_linear_890_931)"/>
<path d="M227.398 172.533C227.398 170.202 229.288 168.312 231.619 168.312H248.501C250.832 168.312 252.721 170.202 252.721 172.533C252.721 174.863 250.832 176.753 248.501 176.753H231.619C229.288 176.753 227.398 174.863 227.398 172.533Z" fill="url(#paint8_linear_890_931)"/>
<path d="M206.296 155.651C203.965 155.651 202.076 157.54 202.076 159.871C202.076 162.202 203.965 164.092 206.296 164.092H223.178C225.509 164.092 227.398 162.202 227.398 159.871C227.398 157.54 225.509 155.651 223.178 155.651H206.296Z" fill="url(#paint9_linear_890_931)"/>
<path d="M155.651 172.533C155.651 170.202 157.54 168.312 159.871 168.312H172.533C174.863 168.312 176.753 170.202 176.753 172.533C176.753 174.863 174.863 176.753 172.533 176.753H159.871C157.54 176.753 155.651 174.863 155.651 172.533Z" fill="url(#paint10_linear_890_931)"/>
<path fill-rule="evenodd" clip-rule="evenodd" d="M255.604 259.074C258.096 261.255 261.634 261.776 264.65 260.408C267.666 259.039 269.603 256.033 269.603 252.721V231.619C283.588 231.619 294.926 220.282 294.926 206.296V155.651C294.926 141.665 283.588 130.328 269.603 130.328H155.651C141.665 130.328 130.328 141.665 130.328 155.651V206.296C130.328 220.282 141.665 231.619 155.651 231.619H224.227L255.604 259.074ZM265.382 223.178C263.052 223.178 261.162 225.068 261.162 227.398V252.721L228.592 224.222C227.822 223.549 226.835 223.178 225.813 223.178H155.651C146.327 223.178 138.769 215.62 138.769 206.296V155.651C138.769 146.327 146.327 138.769 155.651 138.769H269.603C278.926 138.769 286.485 146.327 286.485 155.651V206.296C286.485 215.62 278.926 223.178 269.603 223.178H265.382Z" fill="url(#paint11_linear_890_931)"/>
<path d="M138.769 278.044C138.769 271.051 144.438 265.382 151.43 265.382H192.58C194.911 265.382 196.8 263.493 196.8 261.162C196.8 258.831 194.911 256.942 192.58 256.942H151.43C139.776 256.942 130.328 266.389 130.328 278.044V328.689C130.328 340.344 139.776 349.791 151.43 349.791H221.592L247.163 372.166C252.621 376.941 261.162 373.065 261.162 365.813V349.791H265.382C277.037 349.791 286.485 340.344 286.485 328.689V303.366C286.485 301.036 284.595 299.146 282.264 299.146C279.933 299.146 278.044 301.036 278.044 303.366V328.689C278.044 335.682 272.375 341.351 265.382 341.351H256.942C254.611 341.351 252.721 343.24 252.721 345.571V365.813L227.151 343.439C225.612 342.093 223.637 341.351 221.592 341.351H151.43C144.438 341.351 138.769 335.682 138.769 328.689V278.044Z" fill="url(#paint12_linear_890_931)"/>
<path d="M345.571 206.296C352.564 206.296 358.232 211.965 358.232 218.958V269.603C358.232 276.596 352.564 282.264 345.571 282.264H275.409C273.365 282.264 271.389 283.006 269.851 284.353L244.28 306.727V286.485C244.28 284.154 242.391 282.264 240.06 282.264H231.619C224.626 282.264 218.958 276.596 218.958 269.603V244.28C218.958 241.949 217.068 240.06 214.737 240.06C212.406 240.06 210.517 241.949 210.517 244.28V269.603C210.517 281.257 219.964 290.705 231.619 290.705H235.839V306.727C235.839 313.979 244.381 317.855 249.839 313.079L275.409 290.705H345.571C357.225 290.705 366.673 281.257 366.673 269.603V218.958C366.673 207.303 357.225 197.855 345.571 197.855H312.863C310.532 197.855 308.642 199.745 308.642 202.076C308.642 204.407 310.532 206.296 312.863 206.296H345.571Z" fill="url(#paint13_linear_890_931)"/>
<path d="M151.43 282.264C151.43 279.933 153.32 278.044 155.651 278.044H180.974C183.304 278.044 185.194 279.933 185.194 282.264C185.194 284.595 183.304 286.485 180.974 286.485H155.651C153.32 286.485 151.43 284.595 151.43 282.264Z" fill="url(#paint14_linear_890_931)"/>
<path d="M341.351 218.958C343.681 218.958 345.571 220.847 345.571 223.178C345.571 225.509 343.681 227.398 341.351 227.398H316.028C313.697 227.398 311.807 225.509 311.807 223.178C311.807 220.847 313.697 218.958 316.028 218.958H341.351Z" fill="url(#paint15_linear_890_931)"/>
<path d="M155.651 303.366C153.32 303.366 151.43 305.256 151.43 307.587C151.43 309.918 153.32 311.807 155.651 311.807H189.414C191.745 311.807 193.635 309.918 193.635 307.587C193.635 305.256 191.745 303.366 189.414 303.366H155.651Z" fill="url(#paint16_linear_890_931)"/>
<path d="M307.587 248.501C307.587 246.17 305.697 244.28 303.367 244.28H299.146C296.815 244.28 294.926 246.17 294.926 248.501C294.926 250.832 296.815 252.721 299.146 252.721H303.367C305.697 252.721 307.587 250.832 307.587 248.501Z" fill="url(#paint17_linear_890_931)"/>
<path d="M341.351 256.942C343.681 256.942 345.571 258.831 345.571 261.162C345.571 263.493 343.681 265.382 341.351 265.382H324.469C322.138 265.382 320.248 263.493 320.248 261.162C320.248 258.831 322.138 256.942 324.469 256.942H341.351Z" fill="url(#paint18_linear_890_931)"/>
<path d="M345.571 248.501C345.571 246.17 343.681 244.28 341.351 244.28H316.028C313.697 244.28 311.807 246.17 311.807 248.501C311.807 250.832 313.697 252.721 316.028 252.721H341.351C343.681 252.721 345.571 250.832 345.571 248.501Z" fill="url(#paint19_linear_890_931)"/>
<path d="M180.974 290.705C178.643 290.705 176.753 292.595 176.753 294.926C176.753 297.256 178.643 299.146 180.974 299.146H189.414C191.745 299.146 193.635 297.256 193.635 294.926C193.635 292.595 191.745 290.705 189.414 290.705H180.974Z" fill="url(#paint20_linear_890_931)"/>
<path d="M197.855 307.587C197.855 305.256 199.745 303.366 202.076 303.366H206.296C208.627 303.366 210.517 305.256 210.517 307.587C210.517 309.918 208.627 311.807 206.296 311.807H202.076C199.745 311.807 197.855 309.918 197.855 307.587Z" fill="url(#paint21_linear_890_931)"/>
<path d="M316.028 231.619C318.359 231.619 320.248 233.508 320.248 235.839C320.248 238.17 318.359 240.06 316.028 240.06H303.367C301.036 240.06 299.146 238.17 299.146 235.839C299.146 233.508 301.036 231.619 303.367 231.619H316.028Z" fill="url(#paint22_linear_890_931)"/>
<path d="M155.651 290.705C153.32 290.705 151.43 292.595 151.43 294.926C151.43 297.256 153.32 299.146 155.651 299.146H168.312C170.643 299.146 172.533 297.256 172.533 294.926C172.533 292.595 170.643 290.705 168.312 290.705H155.651Z" fill="url(#paint23_linear_890_931)"/>
<path d="M151.43 320.248C151.43 317.917 153.32 316.028 155.651 316.028H168.312C170.643 316.028 172.533 317.917 172.533 320.248C172.533 322.579 170.643 324.469 168.312 324.469H155.651C153.32 324.469 151.43 322.579 151.43 320.248Z" fill="url(#paint24_linear_890_931)"/>
<path d="M341.351 231.619C343.681 231.619 345.571 233.508 345.571 235.839C345.571 238.17 343.681 240.06 341.351 240.06H328.689C326.358 240.06 324.469 238.17 324.469 235.839C324.469 233.508 326.358 231.619 328.689 231.619H341.351Z" fill="url(#paint25_linear_890_931)"/>
</g>
</g>
<rect x="1.80072" y="1.80072" width="493.399" height="493.399" rx="246.699" stroke="#4A4A4A" stroke-width="3.60145" stroke-dasharray="7.2 7.2"/>
<defs>
<filter id="filter0_d_890_931" x="-66.6261" y="-66.6261" width="630.254" height="630.254" filterUnits="userSpaceOnUse" color-interpolation-filters="sRGB">
<feFlood flood-opacity="0" result="BackgroundImageFix"/>
<feColorMatrix in="SourceAlpha" type="matrix" values="0 0 0 0 0 0 0 0 0 0 0 0 0 0 0 0 0 0 127 0" result="hardAlpha"/>
<feOffset/>
<feGaussianBlur stdDeviation="45.0181"/>
<feComposite in2="hardAlpha" operator="out"/>
<feColorMatrix type="matrix" values="0 0 0 0 0.069255 0 0 0 0 0.275775 0 0 0 0 0.564904 0 0 0 1 0"/>
<feBlend mode="normal" in2="BackgroundImageFix" result="effect1_dropShadow_890_931"/>
<feBlend mode="normal" in="SourceGraphic" in2="effect1_dropShadow_890_931" result="shape"/>
</filter>
<linearGradient id="paint0_linear_890_931" x1="156.486" y1="140.476" x2="374.409" y2="367.968" gradientUnits="userSpaceOnUse">
<stop stop-color="#6FD3FF"/>
<stop offset="1" stop-color="#288AFE"/>
</linearGradient>
<linearGradient id="paint1_linear_890_931" x1="156.486" y1="140.476" x2="374.409" y2="367.968" gradientUnits="userSpaceOnUse">
<stop stop-color="#6FD3FF"/>
<stop offset="1" stop-color="#288AFE"/>
</linearGradient>
<linearGradient id="paint2_linear_890_931" x1="156.486" y1="140.476" x2="374.409" y2="367.968" gradientUnits="userSpaceOnUse">
<stop stop-color="#6FD3FF"/>
<stop offset="1" stop-color="#288AFE"/>
</linearGradient>
<linearGradient id="paint3_linear_890_931" x1="156.486" y1="140.476" x2="374.409" y2="367.968" gradientUnits="userSpaceOnUse">
<stop stop-color="#6FD3FF"/>
<stop offset="1" stop-color="#288AFE"/>
</linearGradient>
<linearGradient id="paint4_linear_890_931" x1="156.486" y1="140.476" x2="374.409" y2="367.968" gradientUnits="userSpaceOnUse">
<stop stop-color="#6FD3FF"/>
<stop offset="1" stop-color="#288AFE"/>
</linearGradient>
<linearGradient id="paint5_linear_890_931" x1="156.486" y1="140.476" x2="374.409" y2="367.968" gradientUnits="userSpaceOnUse">
<stop stop-color="#6FD3FF"/>
<stop offset="1" stop-color="#288AFE"/>
</linearGradient>
<linearGradient id="paint6_linear_890_931" x1="156.486" y1="140.476" x2="374.409" y2="367.968" gradientUnits="userSpaceOnUse">
<stop stop-color="#6FD3FF"/>
<stop offset="1" stop-color="#288AFE"/>
</linearGradient>
<linearGradient id="paint7_linear_890_931" x1="156.486" y1="140.476" x2="374.409" y2="367.968" gradientUnits="userSpaceOnUse">
<stop stop-color="#6FD3FF"/>
<stop offset="1" stop-color="#288AFE"/>
</linearGradient>
<linearGradient id="paint8_linear_890_931" x1="156.486" y1="140.476" x2="374.409" y2="367.968" gradientUnits="userSpaceOnUse">
<stop stop-color="#6FD3FF"/>
<stop offset="1" stop-color="#288AFE"/>
</linearGradient>
<linearGradient id="paint9_linear_890_931" x1="156.486" y1="140.476" x2="374.409" y2="367.968" gradientUnits="userSpaceOnUse">
<stop stop-color="#6FD3FF"/>
<stop offset="1" stop-color="#288AFE"/>
</linearGradient>
<linearGradient id="paint10_linear_890_931" x1="156.486" y1="140.476" x2="374.409" y2="367.968" gradientUnits="userSpaceOnUse">
<stop stop-color="#6FD3FF"/>
<stop offset="1" stop-color="#288AFE"/>
</linearGradient>
<linearGradient id="paint11_linear_890_931" x1="156.486" y1="140.476" x2="374.409" y2="367.968" gradientUnits="userSpaceOnUse">
<stop stop-color="#6FD3FF"/>
<stop offset="1" stop-color="#288AFE"/>
</linearGradient>
<linearGradient id="paint12_linear_890_931" x1="156.486" y1="140.476" x2="374.409" y2="367.968" gradientUnits="userSpaceOnUse">
<stop stop-color="#6FD3FF"/>
<stop offset="1" stop-color="#288AFE"/>
</linearGradient>
<linearGradient id="paint13_linear_890_931" x1="156.486" y1="140.476" x2="374.409" y2="367.968" gradientUnits="userSpaceOnUse">
<stop stop-color="#6FD3FF"/>
<stop offset="1" stop-color="#288AFE"/>
</linearGradient>
<linearGradient id="paint14_linear_890_931" x1="156.486" y1="140.476" x2="374.409" y2="367.968" gradientUnits="userSpaceOnUse">
<stop stop-color="#6FD3FF"/>
<stop offset="1" stop-color="#288AFE"/>
</linearGradient>
<linearGradient id="paint15_linear_890_931" x1="156.486" y1="140.476" x2="374.409" y2="367.968" gradientUnits="userSpaceOnUse">
<stop stop-color="#6FD3FF"/>
<stop offset="1" stop-color="#288AFE"/>
</linearGradient>
<linearGradient id="paint16_linear_890_931" x1="156.486" y1="140.476" x2="374.409" y2="367.968" gradientUnits="userSpaceOnUse">
<stop stop-color="#6FD3FF"/>
<stop offset="1" stop-color="#288AFE"/>
</linearGradient>
<linearGradient id="paint17_linear_890_931" x1="156.486" y1="140.476" x2="374.409" y2="367.968" gradientUnits="userSpaceOnUse">
<stop stop-color="#6FD3FF"/>
<stop offset="1" stop-color="#288AFE"/>
</linearGradient>
<linearGradient id="paint18_linear_890_931" x1="156.486" y1="140.476" x2="374.409" y2="367.968" gradientUnits="userSpaceOnUse">
<stop stop-color="#6FD3FF"/>
<stop offset="1" stop-color="#288AFE"/>
</linearGradient>
<linearGradient id="paint19_linear_890_931" x1="156.486" y1="140.476" x2="374.409" y2="367.968" gradientUnits="userSpaceOnUse">
<stop stop-color="#6FD3FF"/>
<stop offset="1" stop-color="#288AFE"/>
</linearGradient>
<linearGradient id="paint20_linear_890_931" x1="156.486" y1="140.476" x2="374.409" y2="367.968" gradientUnits="userSpaceOnUse">
<stop stop-color="#6FD3FF"/>
<stop offset="1" stop-color="#288AFE"/>
</linearGradient>
<linearGradient id="paint21_linear_890_931" x1="156.486" y1="140.476" x2="374.409" y2="367.968" gradientUnits="userSpaceOnUse">
<stop stop-color="#6FD3FF"/>
<stop offset="1" stop-color="#288AFE"/>
</linearGradient>
<linearGradient id="paint22_linear_890_931" x1="156.486" y1="140.476" x2="374.409" y2="367.968" gradientUnits="userSpaceOnUse">
<stop stop-color="#6FD3FF"/>
<stop offset="1" stop-color="#288AFE"/>
</linearGradient>
<linearGradient id="paint23_linear_890_931" x1="156.486" y1="140.476" x2="374.409" y2="367.968" gradientUnits="userSpaceOnUse">
<stop stop-color="#6FD3FF"/>
<stop offset="1" stop-color="#288AFE"/>
</linearGradient>
<linearGradient id="paint24_linear_890_931" x1="156.486" y1="140.476" x2="374.409" y2="367.968" gradientUnits="userSpaceOnUse">
<stop stop-color="#6FD3FF"/>
<stop offset="1" stop-color="#288AFE"/>
</linearGradient>
<linearGradient id="paint25_linear_890_931" x1="156.486" y1="140.476" x2="374.409" y2="367.968" gradientUnits="userSpaceOnUse">
<stop stop-color="#6FD3FF"/>
<stop offset="1" stop-color="#288AFE"/>
</linearGradient>
<clipPath id="clip0_890_931">
<rect width="497" height="497" rx="248.5" fill="white"/>
</clipPath>
</defs>
</svg>
