<svg width="28" height="18" viewBox="0 0 28 18" fill="none" xmlns="http://www.w3.org/2000/svg">
<g clip-path="url(#clip0_806_927)">
<path d="M7.91815 6.66017C7.91815 7.00866 7.95524 7.29122 8.02014 7.49843C8.09431 7.70565 8.18703 7.93169 8.31683 8.17658C8.36319 8.25193 8.38173 8.32728 8.38173 8.39321C8.38173 8.4874 8.3261 8.58158 8.20557 8.67577L7.62147 9.07135C7.53802 9.12787 7.45458 9.15612 7.38041 9.15612C7.28769 9.15612 7.19498 9.10903 7.10226 9.02426C6.97246 8.88298 6.8612 8.73228 6.76849 8.58158C6.67577 8.42146 6.58306 8.24251 6.48107 8.02588C5.75789 8.8924 4.84928 9.32566 3.75524 9.32566C2.97643 9.32566 2.35524 9.09961 1.90094 8.64751C1.44663 8.19542 1.21484 7.59262 1.21484 6.83913C1.21484 6.03854 1.49299 5.38865 2.05855 4.89888C2.62412 4.4091 3.37511 4.16422 4.33008 4.16422C4.64531 4.16422 4.96981 4.19247 5.31286 4.23957C5.6559 4.28666 6.00822 4.36201 6.37908 4.44678V3.75921C6.37908 3.04339 6.23074 2.5442 5.94332 2.25222C5.64663 1.96024 5.14597 1.81896 4.43206 1.81896C4.10756 1.81896 3.77378 1.85664 3.43074 1.94141C3.08769 2.02617 2.75392 2.12978 2.42941 2.26164C2.28107 2.32757 2.16981 2.36525 2.10491 2.38408C2.04001 2.40292 1.99365 2.41234 1.95657 2.41234C1.82676 2.41234 1.76186 2.31815 1.76186 2.12036V1.65885C1.76186 1.50815 1.78041 1.39512 1.82676 1.32919C1.87312 1.26326 1.95657 1.19733 2.08637 1.1314C2.41087 0.961863 2.80027 0.820582 3.25458 0.707558C3.70888 0.585115 4.191 0.528603 4.70094 0.528603C5.80425 0.528603 6.61087 0.782908 7.13007 1.29152C7.64001 1.80013 7.89961 2.57246 7.89961 3.60851V6.66017H7.91815ZM4.15392 8.09181C4.45988 8.09181 4.77511 8.0353 5.10888 7.92227C5.44266 7.80925 5.73935 7.60204 5.98968 7.31948C6.13802 7.14052 6.24928 6.94273 6.30491 6.71668C6.36054 6.49063 6.39762 6.21749 6.39762 5.89726V5.50167C6.12875 5.43574 5.84133 5.37923 5.54464 5.34155C5.24796 5.30388 4.96054 5.28504 4.67312 5.28504C4.05193 5.28504 3.59763 5.40749 3.29166 5.66179C2.9857 5.91609 2.83736 6.274 2.83736 6.74494C2.83736 7.18762 2.94862 7.51727 3.18041 7.74332C3.40292 7.97879 3.72743 8.09181 4.15392 8.09181ZM11.5989 9.10903C11.4321 9.10903 11.3208 9.08077 11.2466 9.01484C11.1725 8.95833 11.1076 8.82647 11.0519 8.64751L8.87312 1.36687C8.81749 1.17849 8.78968 1.05605 8.78968 0.990119C8.78968 0.83942 8.86385 0.754652 9.01219 0.754652H9.9208C10.097 0.754652 10.2175 0.782908 10.2824 0.848838C10.3566 0.905351 10.4122 1.03721 10.4678 1.21617L12.0254 7.45134L13.4718 1.21617C13.5182 1.02779 13.5738 0.905351 13.648 0.848838C13.7221 0.792326 13.8519 0.754652 14.0188 0.754652H14.7605C14.9367 0.754652 15.0572 0.782908 15.1314 0.848838C15.2056 0.905351 15.2705 1.03721 15.3076 1.21617L16.7725 7.52669L18.3764 1.21617C18.4321 1.02779 18.497 0.905351 18.5619 0.848838C18.636 0.792326 18.7566 0.754652 18.9235 0.754652H19.7857C19.934 0.754652 20.0175 0.830001 20.0175 0.990119C20.0175 1.03721 20.0082 1.08431 19.999 1.14082C19.9897 1.19733 19.9711 1.27268 19.9341 1.37629L17.6996 8.65693C17.644 8.84531 17.5791 8.96775 17.5049 9.02426C17.4307 9.08077 17.3102 9.11845 17.1526 9.11845H16.3552C16.1791 9.11845 16.0586 9.09019 15.9844 9.02426C15.9102 8.95833 15.8453 8.83589 15.8082 8.64751L14.3711 2.57246L12.9433 8.6381C12.897 8.82647 12.8413 8.94891 12.7672 9.01484C12.693 9.08077 12.5632 9.10903 12.3963 9.10903H11.5989ZM23.5129 9.36333C23.0307 9.36333 22.5486 9.30682 22.085 9.1938C21.6215 9.08077 21.2599 8.95833 21.0188 8.81705C20.8705 8.73228 20.7685 8.63809 20.7314 8.55333C20.6943 8.46856 20.6758 8.37437 20.6758 8.2896V7.80925C20.6758 7.61146 20.7499 7.51727 20.889 7.51727C20.9446 7.51727 21.0003 7.52669 21.0559 7.54553C21.1115 7.56436 21.195 7.60204 21.2877 7.63971C21.6029 7.78099 21.946 7.89402 22.3076 7.96937C22.6784 8.04472 23.04 8.08239 23.4109 8.08239C23.995 8.08239 24.4493 7.97879 24.7645 7.77158C25.0797 7.56436 25.2466 7.26297 25.2466 6.8768C25.2466 6.61308 25.1632 6.39645 24.9963 6.21749C24.8294 6.03854 24.5142 5.87842 24.0599 5.72772L22.7155 5.30388C22.0387 5.08725 21.538 4.76701 21.2321 4.34317C20.9261 3.92875 20.7685 3.46723 20.7685 2.97746C20.7685 2.58188 20.8519 2.23339 21.0188 1.93199C21.1857 1.63059 21.4082 1.36687 21.6864 1.15966C21.9645 0.943025 22.2797 0.782908 22.6506 0.669883C23.0215 0.556859 23.4109 0.509766 23.8188 0.509766C24.0228 0.509766 24.236 0.519184 24.44 0.54744C24.6533 0.575696 24.848 0.613371 25.0427 0.651046C25.2281 0.698139 25.4042 0.745233 25.5711 0.801745C25.738 0.858257 25.8678 0.914769 25.9605 0.971281C26.0903 1.04663 26.1831 1.12198 26.2387 1.20675C26.2943 1.2821 26.3221 1.3857 26.3221 1.51757V1.96024C26.3221 2.15804 26.248 2.26164 26.1089 2.26164C26.0347 2.26164 25.9142 2.22397 25.7566 2.14862C25.2281 1.90373 24.6347 1.78129 23.9764 1.78129C23.448 1.78129 23.0307 1.86606 22.7433 2.04501C22.4559 2.22397 22.3076 2.49711 22.3076 2.88328C22.3076 3.147 22.4003 3.37305 22.5857 3.552C22.7711 3.73096 23.1142 3.90991 23.6056 4.07003L24.9221 4.49387C25.5897 4.7105 26.0718 5.0119 26.3592 5.39807C26.6466 5.78423 26.7857 6.22691 26.7857 6.71668C26.7857 7.12169 26.7023 7.48902 26.5446 7.80925C26.3778 8.12949 26.1552 8.41205 25.8678 8.6381C25.5804 8.87356 25.2374 9.0431 24.8387 9.16554C24.4215 9.2974 23.9857 9.36333 23.5129 9.36333Z" fill="#252F3E"/>
<path d="M25.2655 13.9418C22.2151 16.2305 17.7833 17.4455 13.9728 17.4455C8.63236 17.4455 3.82044 15.4394 0.185998 12.1051C-0.101419 11.8414 0.158184 11.4835 0.50123 11.6907C4.43236 14.0077 9.28136 15.4111 14.2973 15.4111C17.6814 15.4111 21.3992 14.6953 24.8204 13.226C25.3304 12.9905 25.7661 13.565 25.2655 13.9418ZM26.5357 12.4725C26.1463 11.9639 23.9582 12.2276 22.9661 12.35C22.6694 12.3877 22.6231 12.124 22.892 11.9262C24.635 10.6829 27.4999 11.0408 27.8337 11.4553C28.1675 11.8791 27.741 14.7895 26.1092 16.1834C25.8588 16.4001 25.6178 16.287 25.729 16.0045C26.0999 15.072 26.9251 12.9717 26.5357 12.4725Z" fill="#FF9900"/>
</g>
<defs>
<clipPath id="clip0_806_927">
<rect width="28" height="17" fill="white" transform="translate(0 0.5)"/>
</clipPath>
</defs>
</svg>
