<svg width="25" height="26" viewBox="0 0 25 26" fill="none" xmlns="http://www.w3.org/2000/svg">
<path d="M8.38756 1.37341H15.6905L8.10952 23.8351C8.03167 24.066 7.88333 24.2667 7.68541 24.4088C7.48749 24.5509 7.24996 24.6273 7.00631 24.6273H1.32298C1.1384 24.6272 0.956479 24.5833 0.792244 24.499C0.62801 24.4148 0.486173 24.2927 0.378449 24.1428C0.270757 23.9929 0.200323 23.8195 0.172979 23.6369C0.145635 23.4544 0.162167 23.268 0.221207 23.0931L7.28435 2.16536C7.36224 1.93449 7.51058 1.73386 7.70849 1.59172C7.9064 1.44959 8.1439 1.37311 8.38756 1.37305V1.37341Z" fill="url(#paint0_linear_806_930)" style="mix-blend-mode:luminosity"/>
<path d="M19.0003 16.4395H7.41959C7.31191 16.4392 7.20665 16.4715 7.11757 16.532C7.02848 16.5925 6.9597 16.6784 6.92018 16.7786C6.88067 16.8788 6.87226 16.9886 6.89606 17.0936C6.91985 17.1986 6.97475 17.294 7.05358 17.3674L14.495 24.3131C14.7117 24.5152 14.9969 24.6276 15.2932 24.6275H21.8506L19.0003 16.4395Z" fill="#0078D4" style="mix-blend-mode:luminosity"/>
<path d="M8.38589 1.37306C8.13958 1.37213 7.89942 1.44998 7.70049 1.59524C7.50156 1.74049 7.35429 1.94554 7.28017 2.18045L0.228336 23.0737C0.165381 23.2492 0.145623 23.4373 0.170732 23.6221C0.19584 23.8069 0.265078 23.9829 0.372587 24.1352C0.480097 24.2876 0.622717 24.4118 0.788385 24.4974C0.954053 24.583 1.13789 24.6274 1.32436 24.6269H7.15452C7.37165 24.5881 7.57459 24.4924 7.74262 24.3495C7.91065 24.2066 8.03773 24.0217 8.1109 23.8136L9.5171 19.6691L14.5404 24.3543C14.7509 24.5284 15.0149 24.6247 15.288 24.6269H21.8211L18.9557 16.4388L10.6031 16.4408L15.7152 1.37306H8.38589Z" fill="url(#paint1_linear_806_930)" style="mix-blend-mode:luminosity"/>
<path d="M17.7172 2.16392C17.6394 1.93337 17.4913 1.73304 17.2936 1.59115C17.096 1.44927 16.8588 1.37298 16.6155 1.37305H8.47656C8.71983 1.37307 8.95697 1.4494 9.15459 1.59127C9.3522 1.73315 9.50034 1.93343 9.57815 2.16392L16.6415 23.0925C16.7006 23.2675 16.7172 23.454 16.6899 23.6366C16.6627 23.8192 16.5923 23.9927 16.4846 24.1427C16.377 24.2927 16.2351 24.4149 16.0708 24.4991C15.9065 24.5834 15.7245 24.6273 15.5399 24.6273H23.6791C23.8637 24.6271 24.0456 24.5831 24.2098 24.4988C24.374 24.4144 24.5157 24.2922 24.6233 24.1423C24.7309 23.9923 24.8013 23.8189 24.8287 23.6364C24.856 23.4539 24.8395 23.2674 24.7806 23.0925L17.7172 2.16392Z" fill="url(#paint2_linear_806_930)" style="mix-blend-mode:luminosity"/>
<defs>
<linearGradient id="paint0_linear_806_930" x1="11.0494" y1="3.09661" x2="3.46513" y2="25.502" gradientUnits="userSpaceOnUse">
<stop stop-color="#114A8B"/>
<stop offset="1" stop-color="#0669BC"/>
</linearGradient>
<linearGradient id="paint1_linear_806_930" x1="13.4167" y1="13.5378" x2="11.6625" y2="14.1308" gradientUnits="userSpaceOnUse">
<stop stop-opacity="0.3"/>
<stop offset="0.071" stop-opacity="0.2"/>
<stop offset="0.321" stop-opacity="0.1"/>
<stop offset="0.623" stop-opacity="0.05"/>
<stop offset="1" stop-opacity="0"/>
</linearGradient>
<linearGradient id="paint2_linear_806_930" x1="12.4555" y1="2.44269" x2="20.7808" y2="24.6224" gradientUnits="userSpaceOnUse">
<stop stop-color="#3CCBF4"/>
<stop offset="1" stop-color="#2892DF"/>
</linearGradient>
</defs>
</svg>
