<svg width="30" height="30" viewBox="0 0 30 30" fill="none" xmlns="http://www.w3.org/2000/svg">
<path d="M18.8906 9.44621H18.9844L18.9375 9.39934L22.2188 6.11809V6.04777C19.4531 3.61027 15.6328 2.76652 12.0937 3.82121C8.55469 4.8759 5.83594 7.6884 4.85156 11.2509C4.89844 11.2275 4.96875 11.204 5.03906 11.204C6.25781 10.4071 7.71094 9.9384 9.23438 9.9384C9.75 9.9384 10.2422 9.98527 10.7344 10.079C10.7578 10.0556 10.7812 10.0556 10.8047 10.0556C12.9141 7.73528 16.4766 7.45402 18.9141 9.44621H18.8906Z" fill="#EA4535" style="mix-blend-mode:luminosity"/>
<path d="M25.3359 11.2031C24.7969 9.21094 23.6719 7.40625 22.1016 6.02344L18.75 9.35156C20.1562 10.5 20.9766 12.2344 20.9297 14.0391V14.625C24.8906 14.625 24.8906 20.5312 20.9297 20.5312H14.9766V25.2188H14.9531L14.9766 25.2656H20.9297C24.3516 25.2891 27.375 23.0859 28.3828 19.8516C29.3906 16.6172 28.1484 13.1016 25.3359 11.2031Z" fill="#557EBF" style="mix-blend-mode:luminosity"/>
<path d="M9.14062 25.2891H15.3047V20.5547H9.14062C8.69531 20.5547 8.27344 20.4609 7.875 20.2969L4.3125 23.7187V23.7656C5.71875 24.7734 7.40625 25.3125 9.16406 25.3125L9.14062 25.2891Z" fill="#36A852" style="mix-blend-mode:luminosity"/>
<path d="M9.4202 9.82031C5.92801 9.84375 2.83426 12 1.70926 15.1641C0.584259 18.3516 1.70926 21.8438 4.47488 23.9063L8.13113 20.4141C6.11551 19.5469 5.64676 17.0156 7.19363 15.5391C8.74051 14.0391 11.3655 14.5078 12.2796 16.4297L15.9358 12.9375C14.3889 10.9922 11.9749 9.84375 9.4202 9.86719V9.82031Z" fill="#F9BC15" style="mix-blend-mode:luminosity"/>
</svg>
