<svg width="30" height="30" viewBox="0 0 30 30" fill="none" xmlns="http://www.w3.org/2000/svg">
<path d="M15.1437 2.87128C16.1332 2.87597 17.0777 2.96011 17.9093 3.1073C20.3585 3.53995 20.8029 4.44558 20.8029 6.11597V8.32167H15.0155V9.0569H22.9751C24.6569 9.0569 26.1298 10.0678 26.5905 11.9915C27.1221 14.1958 27.1455 15.5716 26.5905 17.8734C26.1792 19.5869 25.1967 20.8075 23.5146 20.8075H21.5245V18.1633C21.5245 16.2529 19.8719 14.568 17.9091 14.568H12.1282C10.519 14.568 9.2346 13.2428 9.2346 11.6271V6.1162C9.2346 4.54753 10.5579 3.36933 12.1282 3.10753C13.1229 2.94206 14.1544 2.86683 15.1437 2.87128V2.87128ZM18.2735 4.64526C17.6759 4.64526 17.1874 5.14144 17.1874 5.75175C17.1874 6.35948 17.6756 6.85097 18.2735 6.85097C18.8735 6.85097 19.3594 6.35948 19.3594 5.75175C19.3596 5.14144 18.8735 4.64526 18.2735 4.64526V4.64526Z" fill="url(#paint0_linear_561_20747)"/>
<path d="M8.51281 9.05687V11.627C8.51281 13.6192 10.2022 15.2962 12.1283 15.2962H17.9091C19.4926 15.2962 20.8027 16.6516 20.8027 18.2373V23.7487C20.8027 25.3169 19.4391 26.2396 17.9091 26.6894C16.0773 27.2277 14.3204 27.3252 12.1283 26.6894C10.6714 26.2673 9.23469 25.4184 9.23469 23.7487V21.5427H15.0153V20.8073H6.34063C4.65875 20.8073 4.03156 19.6342 3.44656 17.8731C2.84235 16.0602 2.86836 14.3167 3.44656 11.9913C3.86235 10.3166 4.65617 9.05664 6.34063 9.05664H8.51281V9.05687ZM11.7643 23.0132C11.1641 23.0132 10.6782 23.5047 10.6782 24.1129C10.6782 24.7227 11.1643 25.2189 11.7643 25.2189C12.362 25.2189 12.8502 24.7227 12.8502 24.1129C12.8502 23.5047 12.362 23.0132 11.7643 23.0132V23.0132Z" fill="url(#paint1_linear_561_20747)"/>
<path opacity="0.444" d="M7.19344 28.0313C7.19344 28.8617 10.6659 29.5351 14.9491 29.5351C19.2326 29.5351 22.7051 28.8617 22.7051 28.0313C22.7051 27.2007 19.2328 26.5273 14.9491 26.5273C10.6659 26.5273 7.19344 27.2005 7.19344 28.0313Z" fill="url(#paint2_radial_561_20747)"/>
<defs>
<linearGradient id="paint0_linear_561_20747" x1="27.5782" y1="3.56096" x2="14.2297" y2="14.9445" gradientUnits="userSpaceOnUse">
<stop stop-color="#5A9FD4"/>
<stop offset="1" stop-color="#306998"/>
</linearGradient>
<linearGradient id="paint1_linear_561_20747" x1="9.2073" y1="22.0207" x2="13.9943" y2="15.3077" gradientUnits="userSpaceOnUse">
<stop stop-color="#FFD43B"/>
<stop offset="1" stop-color="#FFE873"/>
</linearGradient>
<radialGradient id="paint2_radial_561_20747" cx="0" cy="0" r="1" gradientUnits="userSpaceOnUse" gradientTransform="translate(14.9805 27.9883) rotate(-90) scale(1.50429 6.61262)">
<stop stop-color="#B8B8B8" stop-opacity="0.498"/>
<stop offset="1" stop-color="#7F7F7F" stop-opacity="0"/>
</radialGradient>
</defs>
</svg>
